<?xml version="1.0" encoding="UTF-8"?><svg id="a" xmlns="http://www.w3.org/2000/svg" viewBox="0 0 700 550"><g><g><path d="M419.95,431.55h39.83c2.7,0,4.88,2.19,4.88,4.88v48.25c0,2.7-2.19,4.88-4.88,4.88h-39.83c-7.34,0-13.31-5.96-13.31-13.31v-31.41c0-7.34,5.96-13.31,13.31-13.31Z" style="fill:#e1e1e1;"/><rect x="396.22" y="431.55" width="58.02" height="58.02" rx="4.05" ry="4.05" style="fill:#ececec;"/></g><polygon points="427.74 475.27 410.16 463.51 414.27 457.38 426.05 465.26 440.72 445.85 446.61 450.3 427.74 475.27" style="fill:#e1e1e1;"/></g><g><path d="M245.47,445.13c.36,22.42-17.51,40.96-39.83,41.32-22.32,.36-40.77-17.59-41.13-40.02-.36-22.43,17.51-40.96,39.83-41.32,22.32-.36,40.77,17.59,41.13,40.02Zm-59.84,.97c.17,10.72,8.99,19.31,19.67,19.13,10.67-.17,19.22-9.04,19.05-19.76-.17-10.72-8.99-19.31-19.67-19.13-10.67,.17-19.22,9.04-19.04,19.76Z" style="fill:#ececec;"/><path d="M245.47,445.12c.36,22.42-17.51,40.96-39.83,41.32l-.34-21.22c10.67-.17,19.22-9.04,19.05-19.76-.17-10.72-8.99-19.3-19.67-19.13l-.34-21.22c22.32-.36,40.77,17.59,41.13,40.02Z" style="fill:#e1e1e1;"/><path d="M209.28,489.71c-26.11,.42-46.95-19.85-47.37-46.08l24.72-.4c.2,12.54,9.75,20.44,22.23,20.24l.42,26.24Z" style="fill:#f5f5f5;"/></g><g><path d="M677.97,93.37c.28,17.51-13.67,31.98-31.1,32.27-17.43,.28-31.84-13.74-32.12-31.24-.28-17.51,13.67-31.98,31.1-32.27,17.43-.28,31.84,13.74,32.12,31.24Zm-46.72,.75c.13,8.37,7.02,15.07,15.36,14.94,8.33-.13,15-7.06,14.87-15.43-.13-8.37-7.02-15.07-15.36-14.94-8.33,.13-15,7.06-14.87,15.43Z" style="fill:#ececec;"/><path d="M677.97,93.37c.28,17.51-13.67,31.98-31.1,32.27l-.27-16.57c8.33-.13,15-7.06,14.87-15.43-.13-8.37-7.02-15.07-15.36-14.94l-.26-16.57c17.43-.28,31.84,13.73,32.12,31.24Z" style="fill:#e1e1e1;"/><path d="M649.7,128.19c-20.39,.33-36.66-15.5-36.98-35.98l19.3-.31c.16,9.79,7.61,15.96,17.36,15.8l.33,20.49Z" style="fill:#f5f5f5;"/></g><path d="M35.17,244.69h7.4v-18.53h5.16l.55-6.21h-5.71v-3.53c0-1.46,.29-2.04,1.71-2.04h4.01v-6.44h-5.12c-5.51,0-7.99,2.43-7.99,7.07v4.95h-3.85v6.28h3.85v18.46Z" style="fill:#ececec;"/><g><path d="M186.96,83.14l29.78-4.55c2.5,16.34-8.89,31.83-25.23,34.33-16.34,2.5-31.83-8.89-34.33-25.23-2.5-16.34,8.89-31.83,25.23-34.33,2.6-.4,5.24-.45,7.86-.16l-3.31,29.94Z" style="fill:#f5f5f5;"/><path d="M196.62,53.3l-3.62,23.08,22.66-4.26s-3.33-12.94-19.04-18.83Z" style="fill:#e1e1e1;"/></g><g><g><path d="M91.91,301.24H26.13c-9.66,0-17.49,7.83-17.49,17.49v39.75c0,9.66,7.83,17.49,17.49,17.49h24.13l8.77,12.63,8.77-12.63h24.13c9.66,0,17.49-7.83,17.49-17.49v-39.75c0-9.66-7.83-17.49-17.49-17.49Z" style="fill:#fff;"/><path d="M91.91,301.24s.78-.05,2.27,.11c1.48,.14,3.71,.62,6.26,1.99,1.26,.71,2.59,1.64,3.87,2.87,1.25,1.25,2.45,2.8,3.38,4.66,.94,1.86,1.61,4.03,1.81,6.41,.15,2.38,.06,4.86,.1,7.5,.01,5.27,.03,11.08,.04,17.36,0,3.14,.01,6.41,.02,9.78,0,1.69,0,3.4,0,5.15,.04,1.73-.05,3.56-.44,5.34-.8,3.55-2.75,6.99-5.69,9.51-2.91,2.52-6.75,4.18-10.82,4.32-7.99,.09-16.3,.04-24.94,.06l.28-.14c-2.77,3.99-5.74,8.27-8.76,12.63l-.28,.41-.28-.41c-2.78-4-5.76-8.28-8.77-12.63l.29,.15c-5.59,0-11.51,0-17.51,0-1.44,0-2.88,0-4.31,0-1.43,0-2.86,.02-4.32-.12-2.88-.35-5.66-1.38-8.03-2.99-2.35-1.64-4.3-3.8-5.65-6.28-1.32-2.49-2.04-5.27-2.1-8.04,0-10.88,0-21.37,0-31.37,0-2.5,0-4.97,0-7.4-.05-2.42,.17-4.93,1-7.19,1.57-4.57,5.01-8.24,9.08-10.18,2.03-.98,4.22-1.55,6.39-1.71,2.18-.13,4.26-.03,6.33-.06,4.13,0,8.08,.02,11.86,.02,15.1,.05,27.32,.09,35.8,.11,4.21,.03,7.48,.05,9.73,.07,1.1,.01,1.94,.03,2.53,.03,.57,.01,.86,.04,.86,.04,0,0-.29,.02-.86,.04-.6,0-1.44,.02-2.53,.03-2.25,.02-5.53,.04-9.73,.07-8.48,.03-20.7,.06-35.8,.11-3.78,0-7.74,.01-11.86,.02-2.05,.03-4.19-.06-6.29,.08-2.1,.16-4.21,.72-6.18,1.67-3.93,1.89-7.24,5.45-8.75,9.86-.79,2.21-1,4.56-.95,6.99,0,2.43,0,4.9,0,7.4,.01,9.99,.03,20.48,.04,31.36,.07,2.66,.76,5.33,2.03,7.73,1.3,2.38,3.18,4.46,5.44,6.03,2.28,1.55,4.95,2.53,7.72,2.87,1.38,.13,2.8,.13,4.24,.12,1.43,0,2.87,0,4.31,0,6,0,11.92,0,17.51,0h.18l.1,.15c3.01,4.34,5.99,8.63,8.76,12.63h-.56c3.03-4.36,6-8.64,8.78-12.62l.1-.14h.18c8.62-.01,16.97,.05,24.91-.02,3.92-.12,7.63-1.72,10.45-4.15,2.85-2.42,4.74-5.74,5.53-9.18,.38-1.73,.48-3.46,.44-5.21,0-1.74,0-3.46,0-5.15,0-3.38,.01-6.64,.02-9.78,.01-6.28,.03-12.09,.04-17.36-.02-2.63,.09-5.15-.05-7.47-.18-2.33-.82-4.46-1.73-6.29-.91-1.83-2.07-3.36-3.29-4.61-1.25-1.22-2.55-2.15-3.78-2.87-2.5-1.39-4.7-1.9-6.17-2.08-.73-.14-1.31-.11-1.68-.16-.38-.03-.57-.06-.57-.06Z" style="fill:#e1e1e1;"/></g><g><path d="M45.46,339.62c0,3.13-2.53,5.66-5.66,5.66s-5.66-2.53-5.66-5.66,2.53-5.66,5.66-5.66,5.66,2.53,5.66,5.66Z" style="fill:#e1e1e1;"/><path d="M64.08,339.62c0,3.13-2.53,5.66-5.66,5.66s-5.66-2.53-5.66-5.66,2.53-5.66,5.66-5.66,5.66,2.53,5.66,5.66Z" style="fill:#e1e1e1;"/><path d="M82.7,339.62c0,3.13-2.53,5.66-5.66,5.66s-5.66-2.53-5.66-5.66,2.53-5.66,5.66-5.66,5.66,2.53,5.66,5.66Z" style="fill:#e1e1e1;"/></g></g><g><g><path d="M604.82,144.68h-52.14c-7.65,0-13.86,6.2-13.86,13.86v31.51c0,7.65,6.2,13.86,13.86,13.86h19.12l6.95,10.01,6.95-10.01h19.12c7.65,0,13.86-6.2,13.86-13.86v-31.51c0-7.65-6.2-13.86-13.86-13.86Z" style="fill:#fff;"/><path d="M604.82,144.68s.62-.04,1.8,.08c1.18,.11,2.94,.49,4.96,1.58,1,.56,2.05,1.3,3.06,2.27,.99,.99,1.94,2.22,2.68,3.69,.74,1.47,1.28,3.2,1.44,5.08,.12,1.89,.04,3.85,.08,5.95,0,4.18,.02,8.78,.03,13.76,0,2.49,0,5.08,.01,7.75,0,1.34,0,2.7,0,4.08,.03,1.37-.04,2.82-.35,4.23-.64,2.82-2.18,5.54-4.51,7.54-2.31,2-5.35,3.32-8.57,3.42-6.34,.07-12.92,.03-19.76,.05l.22-.11c-2.19,3.16-4.55,6.56-6.94,10.01l-.22,.32-.22-.32c-2.2-3.17-4.56-6.57-6.95-10.01l.23,.12c-4.43,0-9.12,0-13.88,0-1.14,0-2.28,0-3.42,0-1.13,0-2.27,.01-3.42-.1-2.29-.27-4.49-1.09-6.37-2.37-1.86-1.3-3.41-3.01-4.48-4.98-1.05-1.98-1.62-4.18-1.67-6.37,0-8.62,0-16.94,0-24.86,0-1.98,0-3.94,0-5.87-.04-1.92,.14-3.91,.79-5.7,1.25-3.62,3.97-6.53,7.2-8.07,1.61-.78,3.34-1.23,5.06-1.35,1.73-.1,3.38-.02,5.02-.04,3.27,0,6.41,.01,9.4,.02,11.97,.04,21.66,.07,28.37,.09,3.33,.02,5.93,.04,7.71,.05,.87,.01,1.53,.02,2.01,.03,.45,0,.68,.03,.68,.03,0,0-.23,.02-.68,.03-.47,0-1.14,.02-2.01,.03-1.78,.01-4.38,.03-7.71,.05-6.72,.02-16.41,.05-28.37,.09-3,0-6.13,.01-9.4,.02-1.63,.03-3.32-.05-4.98,.06-1.67,.13-3.34,.57-4.9,1.32-3.12,1.5-5.74,4.32-6.94,7.82-.63,1.75-.79,3.61-.75,5.54,0,1.93,0,3.89,0,5.87,.01,7.92,.02,16.23,.03,24.85,.05,2.11,.6,4.23,1.61,6.13,1.03,1.89,2.52,3.53,4.31,4.78,1.81,1.23,3.92,2.01,6.12,2.27,1.09,.11,2.22,.1,3.36,.09,1.14,0,2.28,0,3.42,0,4.75,0,9.45,0,13.88,0h.14l.08,.12c2.39,3.44,4.74,6.84,6.95,10.01h-.45c2.4-3.45,4.76-6.84,6.95-10.01l.08-.11h.14c6.83,0,13.45,.04,19.74-.02,3.11-.1,6.05-1.36,8.28-3.29,2.26-1.92,3.76-4.55,4.38-7.27,.3-1.37,.38-2.74,.35-4.13,0-1.38,0-2.74,0-4.08,0-2.68,0-5.26,.01-7.75,.01-4.98,.02-9.58,.03-13.76-.02-2.08,.07-4.08-.04-5.92-.14-1.84-.65-3.54-1.37-4.99-.72-1.45-1.64-2.66-2.61-3.65-.99-.97-2.02-1.71-3-2.27-1.98-1.1-3.72-1.5-4.89-1.65-.58-.11-1.04-.09-1.33-.13-.3-.02-.45-.05-.45-.05Z" style="fill:#e1e1e1;"/></g><g><path d="M568,175.1c0,2.48-2.01,4.49-4.49,4.49s-4.49-2.01-4.49-4.49,2.01-4.49,4.49-4.49,4.49,2.01,4.49,4.49Z" style="fill:#e1e1e1;"/><path d="M582.76,175.1c0,2.48-2.01,4.49-4.49,4.49s-4.49-2.01-4.49-4.49,2.01-4.49,4.49-4.49,4.49,2.01,4.49,4.49Z" style="fill:#e1e1e1;"/><path d="M597.52,175.1c0,2.48-2.01,4.49-4.49,4.49s-4.49-2.01-4.49-4.49,2.01-4.49,4.49-4.49,4.49,2.01,4.49,4.49Z" style="fill:#e1e1e1;"/></g></g><path d="M655.47,193.93c2.91,1.86,6.36,2.95,10.07,2.95,12.2,0,19.09-10.3,18.68-19.54,1.28-.93,2.4-2.08,3.28-3.4-1.18,.52-2.45,.88-3.77,1.03,1.36-.81,2.4-2.1,2.89-3.63-1.27,.75-2.68,1.3-4.17,1.59-1.2-1.28-2.91-2.07-4.8-2.07-4.24,0-7.36,3.96-6.4,8.07-5.46-.27-10.3-2.89-13.54-6.87-1.72,2.95-.89,6.82,2.03,8.77-1.08-.03-2.09-.33-2.98-.82-.07,3.04,2.11,5.89,5.27,6.53-.92,.25-1.94,.31-2.97,.11,.83,2.61,3.26,4.51,6.14,4.56-2.76,2.17-6.24,3.13-9.73,2.72Z" style="fill:#ececec;"/><path d="M690.69,490.22s-.57,.01-1.69,0c-1.12,0-2.78-.02-4.95-.03-4.36-.04-10.78-.1-19.04-.18-16.54-.13-40.46-.32-70.02-.55-29.56-.2-64.76-.3-103.85-.38-39.09,.02-82.06,.04-127.16,.07-90.24,.32-171.92,.61-231.05,.82-29.56,.1-53.48,.18-70.02,.24-8.26,.01-14.68,.03-19.04,.03-2.17,0-3.83,0-4.95,0-1.12,0-1.69-.02-1.69-.02,0,0,.57-.02,1.69-.03,1.12-.01,2.78-.03,4.95-.05,4.36-.03,10.77-.07,19.04-.13,16.54-.1,40.46-.23,70.01-.4,59.12-.32,140.81-.77,231.05-.97,45.1-.09,88.08-.1,127.16-.03,39.09,.11,74.29,.24,103.85,.49,14.78,.13,28.15,.25,39.89,.36,11.74,.14,21.85,.26,30.12,.36,8.26,.12,14.68,.21,19.04,.28,2.17,.04,3.83,.07,4.95,.09,1.12,.02,1.69,.05,1.69,.05Z" style="fill:#1a2238;"/><g><g><path d="M91.57,153.01l-2.4-8.03c2.62-4.25,4.13-9.25,4.13-14.61,0-15.41-12.49-27.9-27.9-27.9s-27.9,12.49-27.9,27.9,12.49,27.9,27.9,27.9c6.43,0,12.35-2.18,17.07-5.84h0s9.1,.58,9.1,.58Z" style="fill:#fafafa;"/><path d="M91.57,153.01s-.18,0-.56-.02c-.41-.02-.98-.05-1.72-.08-1.57-.08-3.86-.2-6.82-.35-.07,0-.12-.06-.11-.13,0-.03,.01-.05,.03-.07,0,0,0,0,0-.01l.17,.17c-2.83,2.22-7.05,4.63-12.58,5.56-2.75,.49-5.8,.51-8.97,.02-3.17-.49-6.46-1.56-9.57-3.33-3.11-1.77-6.03-4.25-8.4-7.35-2.37-3.1-4.18-6.82-5.11-10.91-1.92-8.13,.15-17.75,6.27-24.66,3.08-3.5,6.93-6.22,11.14-7.77,4.19-1.59,8.63-2.14,12.85-1.73,4.22,.42,8.19,1.82,11.58,3.85,3.39,2.03,6.21,4.69,8.33,7.61,4.27,5.88,5.7,12.64,5.33,18.19-.34,5.61-2.28,10.05-4.16,13.05v-.09c.76,2.61,1.34,4.63,1.74,6.03,.18,.65,.33,1.16,.43,1.53,.09,.34,.14,.51,.13,.5,0,0-.07-.19-.18-.54-.12-.37-.28-.88-.49-1.54-.43-1.37-1.04-3.35-1.84-5.91,0-.03,0-.07,.01-.09,1.82-3,3.7-7.41,4-12.95,.33-5.48-1.12-12.12-5.34-17.89-2.1-2.86-4.87-5.47-8.21-7.45-3.33-1.98-7.23-3.35-11.37-3.75-4.14-.39-8.5,.15-12.6,1.72-4.12,1.52-7.9,4.2-10.91,7.62-6,6.77-8.03,16.2-6.17,24.17,.9,4,2.67,7.67,4.99,10.71,2.32,3.05,5.18,5.5,8.23,7.25,3.05,1.76,6.28,2.83,9.4,3.32,3.12,.5,6.13,.49,8.84,.03,5.46-.88,9.65-3.22,12.49-5.38,.05-.04,.13-.03,.17,.02,.03,.04,.03,.11,0,.15,0,0,0,.01,0,.01l-.09-.19c2.92,.21,5.18,.38,6.73,.49,.75,.06,1.33,.1,1.75,.14,.4,.03,.61,.06,.61,.06Z" style="fill:#1a2238;"/></g><g><path d="M57.54,130.36c0,1.57-1.27,2.83-2.83,2.83s-2.83-1.27-2.83-2.83,1.27-2.83,2.83-2.83,2.83,1.27,2.83,2.83Z" style="fill:#1a2238;"/><path d="M68.88,130.36c0,1.57-1.27,2.83-2.83,2.83s-2.83-1.27-2.83-2.83,1.27-2.83,2.83-2.83,2.83,1.27,2.83,2.83Z" style="fill:#1a2238;"/><path d="M80.19,128.95c.78,1.36,.32,3.09-1.04,3.87s-3.09,.32-3.87-1.04c-.78-1.36-.32-3.09,1.04-3.87,1.36-.78,3.09-.32,3.87,1.04Z" style="fill:#1a2238;"/></g></g><g><path d="M346.39,417.57h0s-.05,1.5-.07,4.13c-1.79-1.63-3.9-2.88-6.2-3.68h.03s-12.5-7.74-18.2-17.6c-4.14-7.16-5.53-15.83-5.53-15.83,0-.43-.04-4.23-.08-7.34-.03-2.55-2.07-4.6-4.62-4.69-5.36-.19-19.63,.31-20.64,10.21-1.5,14.77,9.48,27.81,10.37,32.05,.17,.8,.31,1.45,.42,1.98-4.22,0-7.48,.05-7.48,.12,0,0,0,0,0,0l-27.72-.05s-9.3-.62-10.22,8.98c-.92,9.6,9.88,10.22,9.88,10.22,0,0-4.8,.89-4.22,9.29,.58,8.4,9.88,9.02,9.88,9.02,0,0-5.4,.89-5.12,8.39,.28,7.3,9.94,9.5,10.46,9.61-1.35,.02-2.19,.05-2.19,.09,0,.03,.64,.06,1.7,.09-3.93,1.46-3.4,6.42-3.4,6.42-.32,10.5,7.78,10.81,7.78,10.81l50.61,.09c5.09,0,10.04-1.36,14.35-3.88,.01,2.15,.03,3.36,.05,3.36h0s35.35,.07,35.35,.07c.08,0,.17-16.08,.2-35.91,.04-19.84,0-35.91-.07-35.92l-35.35-.06Z" style="fill:#ff5c36;"/><g style="opacity:.3;"><path d="M346.39,417.57h0s-.05,1.5-.07,4.13c-1.79-1.63-3.9-2.88-6.2-3.68h.03s-12.5-7.74-18.2-17.6c-4.14-7.16-5.53-15.83-5.53-15.83,0-.43-.04-4.23-.08-7.34-.03-2.55-2.07-4.6-4.62-4.69-5.36-.19-19.63,.31-20.64,10.21-1.5,14.77,9.48,27.81,10.37,32.05,.17,.8,.31,1.45,.42,1.98-4.22,0-7.48,.05-7.48,.12,0,0,0,0,0,0l-27.72-.05s-9.3-.62-10.22,8.98c-.92,9.6,9.88,10.22,9.88,10.22,0,0-4.8,.89-4.22,9.29,.58,8.4,9.88,9.02,9.88,9.02,0,0-5.4,.89-5.12,8.39,.28,7.3,9.94,9.5,10.46,9.61-1.35,.02-2.19,.05-2.19,.09,0,.03,.64,.06,1.7,.09-3.93,1.46-3.4,6.42-3.4,6.42-.32,10.5,7.78,10.81,7.78,10.81l50.61,.09c5.09,0,10.04-1.36,14.35-3.88,.01,2.15,.03,3.36,.05,3.36h0s35.35,.07,35.35,.07c.08,0,.17-16.08,.2-35.91,.04-19.84,0-35.91-.07-35.92l-35.35-.06Z"/></g><g><path d="M342.12,428.63l1.66,4.21-.09,48.39h0c-5.37,5.69-12.86,8.9-20.68,8.89l-50.61-.09s-8.1-.31-7.78-10.81c0,0-.59-5.4,3.91-6.59,0,0-10.2-2.12-10.48-9.62-.29-7.5,5.12-8.39,5.12-8.39,0,0-9.3-.62-9.88-9.02-.58-8.4,4.22-9.29,4.22-9.29,0,0-10.8-.62-9.88-10.22s10.22-8.98,10.22-8.98l36,.06,31.56,.06c7.39,.01,14.02,4.54,16.73,11.41Z" style="fill:#ff5c36;"/><path d="M331.31,418.23s-12.5-7.74-18.2-17.6c-4.14-7.16-5.53-15.83-5.53-15.83,0-.43-.04-4.23-.08-7.34-.03-2.55-2.07-4.6-4.62-4.69-5.36-.19-13.88,4.42-14.89,14.32-1.5,14.77,3.72,23.69,4.62,27.94l.9,4.25,37.8-1.06Z" style="fill:#ff5c36;"/><rect x="337.49" y="417.81" width="35.35" height="71.83" transform="translate(709.49 908.1) rotate(-179.89)" style="fill:#ff5c36;"/><path d="M337.42,489.61c-.08,0-.11-16.08-.07-35.91,.04-19.84,.13-35.91,.2-35.91,.08,0,.11,16.08,.07,35.91-.04,19.83-.13,35.91-.2,35.91Z" style="fill:#1a2238;"/><path d="M372.77,489.67c-.08,0-.11-16.08-.07-35.91,.04-19.84,.13-35.91,.2-35.91s.11,16.08,.07,35.92c-.04,19.83-.13,35.91-.2,35.91Z" style="fill:#1a2238;"/><path d="M350,434.24c0,3.65,2.95,6.62,6.6,6.63s6.62-2.95,6.63-6.6c0-3.65-2.95-6.62-6.6-6.63-3.65,0-6.62,2.95-6.63,6.6Z" style="fill:#fff;"/><path d="M285.55,417.15c0-.08,3.85-.13,8.61-.12,4.76,0,8.61,.08,8.61,.15,0,.08-3.85,.13-8.61,.12-4.75,0-8.61-.08-8.61-.15Z" style="fill:#1a2238;"/><path d="M262.45,454.95c0-.08,2.46-.13,5.5-.13,3.04,0,5.5,.07,5.5,.15,0,.08-2.46,.13-5.5,.13-3.04,0-5.5-.07-5.5-.15Z" style="fill:#1a2238;"/><path d="M256.8,436.13c0-.08,3.5-.13,7.81-.12,4.31,0,7.81,.08,7.81,.15,0,.08-3.5,.13-7.81,.12-4.31,0-7.81-.08-7.81-.15Z" style="fill:#1a2238;"/><path d="M266.32,472.71c0-.08,3.5-.13,7.81-.12,4.31,0,7.81,.08,7.81,.15,0,.08-3.5,.13-7.81,.12-4.31,0-7.81-.08-7.81-.15Z" style="fill:#1a2238;"/><g style="opacity:.3;"><path d="M303.37,376.21c1.27,.73,1.77,2.35,1.69,3.82-.08,1.46-.62,2.86-.94,4.29-.71,3.16-.35,6.55,1.02,9.49,.42,.9,.93,1.93,.5,2.82-.61,1.26-2.48,1.07-3.75,.49-4.83-2.21-8.11-7.44-8.02-12.75,.04-2.24,.67-4.53,2.12-6.23,1.45-1.71,3.87-3.51,7.37-1.92" style="fill:#fff;"/></g><g style="opacity:.3;"><path d="M254.97,419.02c1.12-.5,2.4-.48,3.63-.46,7.15,.15,14.31,.3,21.46,.45,2.34,.05,6.6-.41,7.17,1.83h0c.73,1.13,.12,2.74-.98,3.52-1.09,.78-2.5,.95-3.84,1.04-2.81,.19-5.63,.18-8.45,.16-5.66-.04-11.35-.11-16.93-1.05-.83-.14-1.67-.3-2.41-.71-.74-.4-1.37-1.09-1.5-1.92-.2-1.21,.73-2.39,1.85-2.88Z" style="fill:#fff;"/></g><path d="M345.89,419.83c0-.08,4.94-.13,11.03-.12,6.09,.01,11.03,.08,11.03,.16,0,.08-4.94,.13-11.03,.12-6.09-.01-11.03-.08-11.03-.16Z" style="fill:#fff;"/><path d="M257.19,448.5s-.1-.12-.22-.37c-.13-.24-.29-.61-.43-1.09-.15-.47-.27-1.05-.33-1.71-.05-.65-.04-1.38,.07-2.13,.12-.75,.33-1.44,.58-2.05,.26-.6,.54-1.12,.83-1.53,.28-.41,.54-.71,.74-.9,.2-.19,.31-.29,.32-.28,.04,.04-.39,.47-.9,1.29-.26,.41-.52,.92-.76,1.52-.23,.6-.42,1.27-.54,2-.11,.73-.13,1.43-.09,2.07,.05,.64,.14,1.21,.27,1.67,.24,.94,.52,1.48,.47,1.5Z" style="fill:#fff;"/><path d="M251.99,430.3s-.39-.21-.84-.76c-.45-.54-.92-1.43-1.1-2.5-.17-1.07,0-2.06,.24-2.72,.25-.66,.53-1,.56-.98,.04,.03-.18,.4-.37,1.05-.2,.65-.32,1.59-.16,2.61,.17,1.02,.59,1.87,.98,2.43,.39,.55,.72,.84,.68,.87Z" style="fill:#fff;"/><path d="M263.39,467.97s-.5-.14-1.11-.68c-.61-.53-1.31-1.49-1.52-2.74-.21-1.25,.14-2.39,.54-3.09,.4-.71,.81-1.03,.82-1.01,.04,.03-.31,.39-.65,1.1-.34,.69-.63,1.78-.44,2.95,.2,1.17,.83,2.1,1.38,2.64,.55,.55,1,.78,.97,.82Z" style="fill:#fff;"/><path d="M270.55,485.04s-.39-.24-.83-.81c-.44-.57-.92-1.48-1.12-2.57-.2-1.09-.09-2.11,.12-2.8,.21-.69,.46-1.07,.48-1.06,.04,.02-.14,.42-.29,1.11-.15,.68-.23,1.66-.04,2.71,.2,1.05,.62,1.93,1.01,2.51,.39,.58,.7,.89,.67,.93Z" style="fill:#fff;"/><path d="M291.34,403.27s-.15-.25-.38-.73c-.12-.24-.25-.53-.39-.88-.14-.35-.31-.74-.45-1.2-.32-.89-.62-1.99-.87-3.22-.24-1.23-.42-2.6-.47-4.05-.05-1.45,.03-2.83,.18-4.08,.16-1.24,.38-2.36,.63-3.27,.11-.46,.25-.87,.36-1.23,.11-.36,.22-.66,.32-.91,.19-.49,.31-.76,.33-.76,.02,0-.06,.29-.22,.79-.08,.25-.18,.56-.28,.92-.1,.36-.23,.77-.32,1.23-.23,.91-.42,2.02-.57,3.25-.13,1.24-.2,2.6-.16,4.04,.06,1.43,.23,2.79,.45,4.01,.24,1.22,.51,2.31,.81,3.2,.13,.45,.29,.85,.41,1.2,.12,.35,.24,.65,.34,.9,.2,.49,.3,.76,.28,.77Z" style="fill:#fff;"/></g></g><g><g><path d="M202.97,94.95H485.99c8.84,0,16.01,7.17,16.01,16.01v230.28c0,8.84-7.17,16.01-16.01,16.01H202.97c-8.84,0-16.01-7.17-16.01-16.01V110.97c0-8.84,7.17-16.01,16.01-16.01Z" style="fill:#fff;"/><path d="M485.99,357.76H202.97c-9.1,0-16.51-7.41-16.51-16.51V110.97c0-9.1,7.41-16.51,16.51-16.51H485.99c9.1,0,16.51,7.41,16.51,16.51v230.28c0,9.1-7.41,16.51-16.51,16.51ZM202.97,95.45c-8.55,0-15.51,6.96-15.51,15.51v230.28c0,8.55,6.96,15.51,15.51,15.51H485.99c8.55,0,15.51-6.96,15.51-15.51V110.97c0-8.55-6.96-15.51-15.51-15.51H202.97Z" style="fill:#1a2238;"/></g><rect x="236.83" y="289.9" width="6.66" height="46.13" style="fill:#a7b3f3;"/><rect x="224.21" y="324.5" width="6.66" height="11.53" style="fill:#a7b3f3;"/><rect x="248.35" y="312.97" width="6.66" height="23.07" style="fill:#a7b3f3;"/><rect x="259.68" y="299.53" width="6.66" height="36.5" style="fill:#a7b3f3;"/><rect x="272.74" y="326.28" width="6.66" height="9.76" style="fill:#a7b3f3;"/><path d="M481.6,325.29c-.25-.28-.37-.66-.37-1.12s.12-.83,.37-1.12c.25-.28,.57-.43,.97-.43s.73,.14,.98,.42c.25,.28,.37,.66,.37,1.12s-.12,.84-.37,1.12c-.25,.28-.58,.42-.98,.42s-.73-.14-.97-.43Zm1.48-.39c.12-.17,.18-.41,.18-.72s-.06-.55-.18-.72c-.12-.17-.29-.26-.51-.26-.21,0-.38,.09-.5,.26-.13,.17-.19,.41-.19,.72s.06,.55,.19,.72c.13,.17,.29,.26,.5,.26,.22,0,.39-.09,.51-.26Zm2.87-2.21h.79l-3.85,5.64h-.79l3.85-5.64Zm-.66,5.27c-.25-.28-.37-.66-.37-1.12s.12-.83,.37-1.12c.25-.28,.57-.43,.97-.43s.73,.14,.98,.43c.25,.28,.38,.66,.38,1.12s-.12,.84-.38,1.12c-.25,.28-.57,.43-.98,.43s-.73-.14-.97-.43Zm1.48-.4c.12-.17,.19-.41,.19-.72s-.06-.55-.19-.72c-.12-.17-.29-.26-.51-.26s-.38,.09-.51,.26c-.12,.17-.18,.41-.18,.72s.06,.55,.18,.72c.12,.17,.29,.26,.51,.26s.38-.09,.51-.26Z" style="fill:#a7b3f3;"/><g><path d="M448.8,297.09h21.98c.91,0,1.37-1.09,.73-1.74l-10.99-11.22c-.4-.41-1.06-.41-1.46,0l-10.99,11.22c-.63,.65-.18,1.74,.73,1.74Z" style="fill:#ececec;"/><rect x="453.05" y="294.99" width="14.09" height="22.35" style="fill:#ececec;"/></g><g><path d="M462.44,336.08v4.56h-13.97v-3.61l6.3-5.83c.55-.51,.91-.95,1.09-1.32,.18-.36,.27-.72,.27-1.07,0-.43-.15-.77-.44-1.01-.29-.24-.71-.36-1.26-.36s-1.03,.14-1.49,.42c-.46,.28-.82,.68-1.07,1.2l-4.43-2.22c.66-1.25,1.63-2.23,2.91-2.95,1.28-.72,2.82-1.08,4.63-1.08,1.38,0,2.6,.22,3.66,.67,1.06,.45,1.89,1.09,2.49,1.92,.6,.83,.9,1.78,.9,2.86,0,.96-.2,1.86-.61,2.7-.41,.84-1.2,1.79-2.38,2.85l-2.49,2.27h5.88Z" style="fill:#a7b3f3;"/><path d="M467.43,339.95c-1.19-.72-2.12-1.77-2.79-3.14-.67-1.37-1.01-3-1.01-4.89s.34-3.52,1.01-4.89c.67-1.37,1.6-2.42,2.79-3.14,1.19-.72,2.55-1.08,4.1-1.08s2.91,.36,4.1,1.08c1.19,.72,2.12,1.77,2.79,3.14,.67,1.37,1.01,3,1.01,4.89s-.34,3.52-1.01,4.89c-.67,1.37-1.6,2.42-2.79,3.14-1.19,.72-2.55,1.08-4.1,1.08s-2.91-.36-4.1-1.08Zm6.09-8.03c0-2.94-.66-4.41-1.99-4.41s-1.99,1.47-1.99,4.41,.66,4.41,1.99,4.41,1.99-1.47,1.99-4.41Z" style="fill:#a7b3f3;"/></g><path d="M251.78,199.5c-.25-.28-.37-.66-.37-1.12s.12-.83,.37-1.12c.25-.28,.57-.43,.97-.43s.73,.14,.98,.42c.25,.28,.37,.66,.37,1.12s-.12,.84-.37,1.12c-.25,.28-.58,.42-.98,.42s-.73-.14-.97-.43Zm1.48-.39c.12-.17,.18-.41,.18-.72s-.06-.55-.18-.72c-.12-.17-.29-.26-.51-.26-.21,0-.38,.09-.5,.26-.13,.17-.19,.41-.19,.72s.06,.55,.19,.72c.13,.17,.29,.26,.5,.26,.22,0,.39-.09,.51-.26Zm2.87-2.21h.79l-3.85,5.64h-.79l3.85-5.64Zm-.66,5.27c-.25-.28-.37-.66-.37-1.12s.12-.83,.37-1.12c.25-.28,.57-.43,.97-.43s.73,.14,.98,.43c.25,.28,.38,.66,.38,1.12s-.12,.84-.38,1.12c-.25,.28-.57,.43-.98,.43s-.73-.14-.97-.43Zm1.48-.4c.12-.17,.19-.41,.19-.72s-.06-.55-.19-.72c-.12-.17-.29-.26-.51-.26s-.38,.09-.51,.26c-.12,.17-.18,.41-.18,.72s.06,.55,.18,.72c.12,.17,.29,.26,.51,.26s.38-.09,.51-.26Z" style="fill:#a7b3f3;"/><g><path d="M197.73,198.16h20.11c.83,0,1.25-1,.67-1.59l-10.06-10.27c-.37-.37-.97-.37-1.34,0l-10.06,10.27c-.58,.59-.16,1.59,.67,1.59Z" style="fill:#ececec;"/><rect x="201.61" y="196.24" width="12.9" height="20.45" style="fill:#ececec;"/></g><g><path d="M231.98,197.63v17.43h-5.88v-13h-2.99v-4.43h8.86Z" style="fill:#a7b3f3;"/><path d="M237.92,214.38c-1.19-.72-2.12-1.77-2.79-3.14-.67-1.37-1.01-3-1.01-4.89s.34-3.52,1.01-4.89c.67-1.37,1.6-2.42,2.79-3.14,1.19-.72,2.55-1.08,4.1-1.08s2.91,.36,4.1,1.08c1.19,.72,2.12,1.77,2.79,3.14,.67,1.37,1.01,3,1.01,4.89s-.34,3.52-1.01,4.89c-.67,1.37-1.6,2.42-2.79,3.14-1.19,.72-2.55,1.08-4.1,1.08s-2.91-.36-4.1-1.08Zm6.09-8.03c0-2.94-.66-4.41-1.99-4.41s-1.99,1.47-1.99,4.41,.66,4.41,1.99,4.41,1.99-1.47,1.99-4.41Z" style="fill:#a7b3f3;"/></g><path d="M283.12,336.25c0,.14-13.56,.26-30.28,.26s-30.29-.12-30.29-.26,13.56-.26,30.29-.26,30.28,.12,30.28,.26Z" style="fill:#1a2238;"/></g><g><g><rect x="387.29" y="47.5" width="150.48" height="87.66" rx="8.14" ry="8.14" style="fill:#fff;"/><path d="M529.64,135.16s.41,0,1.18-.12c.77-.12,1.94-.41,3.23-1.24,1.26-.84,2.67-2.28,3.3-4.44,.34-1.07,.36-2.28,.33-3.58,0-1.3,0-2.68-.01-4.14-.02-11.71-.05-28.63-.08-49.54,0-5.23-.01-10.71-.02-16.41,.03-2.79-1.55-5.61-4.11-6.99-1.28-.69-2.73-1.03-4.22-.98-1.51,0-3.03,0-4.57,0-12.3,0-25.44,.02-39.26,.02-27.65,0-58.06,.01-89.97,.02-1.94,0-3.85,.73-5.27,2.03-1.43,1.28-2.37,3.09-2.57,4.99-.1,3.88-.03,7.84-.05,11.71,0,7.77,0,15.43,0,22.95,0,7.52,0,14.92,0,22.16,0,3.62,0,7.2,0,10.74,.01,1.76-.03,3.55,.03,5.26,.11,1.7,.8,3.33,1.9,4.59,1.09,1.28,2.6,2.16,4.21,2.53,.81,.18,1.63,.22,2.48,.2,.85,0,1.69,0,2.53,0,3.37,0,6.69,0,9.97,0,6.55,0,12.91,0,19.06,.01,12.3,.01,23.75,.02,34.21,.03,20.91,.04,37.83,.06,49.54,.08,5.84,.02,10.38,.04,13.47,.05,1.53,.01,2.7,.02,3.5,.03,.79,0,1.19,.03,1.19,.03,0,0-.4,.02-1.19,.03-.8,0-1.97,.01-3.5,.03-3.09,.01-7.63,.03-13.47,.05-11.71,.02-28.63,.05-49.54,.08-10.46,0-21.91,.02-34.21,.03-6.15,0-12.51,0-19.06,.01-3.28,0-6.6,0-9.97,0-.84,0-1.69,0-2.53,0-.84,.02-1.74-.02-2.59-.21-1.71-.39-3.31-1.33-4.47-2.68-1.17-1.34-1.91-3.07-2.02-4.87-.06-1.78-.02-3.52-.03-5.3,0-3.54,0-7.12,0-10.74,0-7.24,0-14.63,0-22.16,0-7.52,0-15.18,0-22.95,.02-3.9-.05-7.77,.05-11.77,.21-2.03,1.21-3.96,2.74-5.32,1.52-1.38,3.56-2.16,5.62-2.16,31.91,0,62.31,.01,89.97,.02,13.83,0,26.97,.02,39.26,.02,1.54,0,3.06,0,4.57,0,1.53-.05,3.09,.31,4.42,1.04,2.7,1.46,4.35,4.43,4.31,7.36,0,5.71-.01,11.19-.02,16.41-.03,20.91-.06,37.83-.08,49.54,0,1.46,0,2.84-.01,4.14,.02,1.29,0,2.54-.36,3.62-.67,2.2-2.11,3.65-3.4,4.48-1.32,.83-2.5,1.11-3.28,1.21-.39,.07-.69,.06-.89,.07-.2,0-.3,0-.3,0Z" style="fill:#1a2238;"/></g><g><g><rect x="406.56" y="102.96" width="4.32" height="15.67" style="fill:#ff5c36;"/><rect x="421.94" y="90.28" width="4.32" height="28.35" style="fill:#ff5c36;"/><rect x="413.74" y="71.69" width="5.33" height="46.94" style="fill:#465066;"/><rect x="437.31" y="107.9" width="4.32" height="10.72" style="fill:#ff5c36;"/><rect x="429.62" y="107.9" width="4.32" height="10.72" style="fill:#465066;"/><rect x="452.69" y="101.06" width="4.32" height="17.56" style="fill:#ff5c36;"/><rect x="445" y="85.82" width="4.32" height="32.81" style="fill:#465066;"/><rect x="475.75" y="85.82" width="4.32" height="32.81" style="fill:#465066;"/><rect x="460.38" y="69.21" width="4.32" height="49.42" style="fill:#465066;"/><rect x="468.07" y="106.39" width="4.32" height="12.24" style="fill:#ff5c36;"/><rect x="506.51" y="109.64" width="4.32" height="8.99" style="fill:#465066;"/><rect x="491.13" y="70.14" width="4.31" height="48.48" style="fill:#465066;"/><rect x="498.82" y="80.06" width="4.31" height="38.57" style="fill:#ff5c36;"/><rect x="483.44" y="78.66" width="4.31" height="39.97" style="fill:#ff5c36;"/><rect x="514.19" y="85.82" width="4.32" height="32.81" style="fill:#ff5c36;"/><rect x="406.67" y="123.27" width="10.14" height="1.78" rx=".61" ry=".61" style="fill:#e1e1e1;"/><rect x="436.06" y="123.27" width="10.14" height="1.78" rx=".61" ry=".61" style="fill:#e1e1e1;"/><rect x="462" y="123.27" width="10.14" height="1.78" rx=".61" ry=".61" style="fill:#e1e1e1;"/><rect x="488.72" y="123.27" width="10.14" height="1.78" rx=".61" ry=".61" style="fill:#e1e1e1;"/><rect x="511.37" y="123.27" width="10.14" height="1.78" rx=".61" ry=".61" style="fill:#e1e1e1;"/></g><path d="M524.04,118.63c0,.14-27.77,.26-62.03,.26s-62.03-.12-62.03-.26,27.77-.26,62.03-.26,62.03,.12,62.03,.26Z" style="fill:#1a2238;"/></g><circle cx="401.66" cy="59.9" r="2.37" style="fill:#e1e1e1;"/><path d="M410.47,59.9c0,1.31-1.06,2.37-2.37,2.37s-2.37-1.06-2.37-2.37,1.06-2.37,2.37-2.37,2.37,1.06,2.37,2.37Z" style="fill:#e1e1e1;"/><circle cx="414.48" cy="59.9" r="2.37" style="fill:#e1e1e1;"/></g><g><path d="M286.74,250.96l14.73,30.72,7.71-2,49.24,42.22,14.53-27.44s-29.32-13.49-34.59-24.28c-5.26-10.79-.32-10.47-.32-10.47l-12.18-18.9-39.12,10.16Z" style="fill:#1a2238;"/><g><g><path d="M305.79,210.01s15.45-4.54,40.16-22.04c18.07-12.8,32.2-28.04,38.48-35.31,3.02-3.49,8.26-4.03,11.78-1.06,5.43,4.58,12.93,16.08,21.09,45.31,14.39,51.54,4.07,61.34-.26,60.56-4.33-.78-32.83-10.2-51.58-11-18.75-.8-47.33,4.78-47.33,4.78l-12.34-41.24Z" style="fill:#e1e1e1;"/><path d="M305.79,210.01s.04,.22,.17,.68c.14,.51,.33,1.19,.58,2.06,.54,1.88,1.32,4.58,2.33,8.07,2.09,7.14,5.13,17.49,8.94,30.52l.08,.29,.3-.05c8.13-1.48,17.43-2.92,27.7-3.91,5.14-.48,10.53-.85,16.12-.83,5.59,.01,11.36,.73,17.27,1.79,11.85,2.09,24.09,5.67,37.03,9.2l.63,.14,.74,.02c.5,.02,.93-.21,1.4-.32,.39-.24,.81-.47,1.18-.74l.98-.95c1.09-1.42,1.95-3.02,2.42-4.72,1.03-3.37,1.46-6.91,1.48-10.44,.15-7.09-.8-14.23-2.05-21.37-.3-1.58-.6-3.16-.9-4.74-.32-1.57-.7-3.12-1.05-4.67-.67-3.11-1.46-6.17-2.28-9.19-1.55-6.07-3.34-11.99-5.27-17.74-1.95-5.75-4.06-11.34-6.6-16.61-2.54-5.25-5.41-10.32-9.42-14.32-1.01-.95-2.16-1.94-3.53-2.41-1.35-.51-2.8-.7-4.2-.51-1.4,.18-2.76,.66-3.92,1.45-1.19,.77-2.07,1.88-2.91,2.84-3.45,3.94-6.94,7.64-10.42,11.12-6.94,6.96-13.83,13.01-20.39,18.17-13.24,10.17-24.92,17.07-33.21,21.3-4.15,2.12-7.47,3.57-9.73,4.5-1.13,.47-2.01,.8-2.6,1.02-.58,.22-.91,.34-.89,.35,.02,0,.31-.05,.92-.24,.6-.19,1.49-.48,2.64-.92,2.3-.87,5.65-2.27,9.84-4.33,8.37-4.13,20.13-10.94,33.48-21.07,6.62-5.14,13.56-11.17,20.55-18.13,3.5-3.48,7.01-7.18,10.5-11.13,.89-1.01,1.68-2,2.73-2.67,1.04-.71,2.26-1.13,3.52-1.29,2.56-.34,5.11,.7,6.96,2.68,3.85,3.85,6.69,8.85,9.19,14.05,2.5,5.22,4.6,10.78,6.53,16.5,1.91,5.73,3.69,11.63,5.23,17.68,.81,3.02,1.6,6.06,2.27,9.16,.34,1.55,.72,3.09,1.04,4.65,.3,1.56,.59,3.13,.89,4.71,1.25,7.09,2.18,14.19,2.04,21.15-.02,3.48-.45,6.93-1.42,10.14-.44,1.63-1.25,3.1-2.21,4.36l-.84,.82c-.31,.22-.64,.39-.96,.6-.73,.22-1.3,.38-2.14,.1-12.83-3.48-25.2-7.08-37.09-9.14-5.94-1.05-11.78-1.75-17.43-1.75-5.64,0-11.05,.4-16.2,.9-10.31,1.04-19.6,2.53-27.75,4.08l.38,.23c-3.94-12.9-7.08-23.15-9.24-30.22-1.08-3.5-1.92-6.21-2.51-8.1-.28-.89-.5-1.59-.66-2.1-.15-.47-.24-.72-.25-.73Z" style="fill:#1a2238;"/></g><polygon points="265.46 253.65 275.49 252.12 269.73 238.8 261.29 243.3 265.46 253.65" style="fill:#ff5c36;"/><path d="M268.38,237.45l4.49,10.37,2.45,5.66c3.36,7.76,12.14,11.51,19.97,8.52l40.74-11.16-16.55-51.63-41.24,15.24c-7.91,3.56-13.28,12.95-9.87,23Z" style="fill:#ff5c36;"/><g style="opacity:.3;"><path d="M413.93,199.68c7.48,27.48,8.64,51.12,2.58,52.81-6.05,1.69-17.02-19.22-24.5-46.7-7.48-27.48-8.63-51.12-2.58-52.81,6.05-1.69,17.02,19.22,24.5,46.7Z"/></g><path d="M388.19,189.65s14.55-6.22,19,13.07c4.45,19.29-9.97,20.06-9.97,20.06-4.32-9.87-7.37-20.88-9.04-33.13Z" style="fill:#fff;"/><path d="M311.34,219.3c.09,.27-6.91,2.85-15.62,5.78-8.72,2.92-15.85,5.08-15.94,4.81-.09-.27,6.9-2.85,15.62-5.78,8.71-2.92,15.85-5.08,15.93-4.81Z" style="fill:#1a2238;"/><path d="M313.14,224.99c.09,.27-6.91,2.85-15.62,5.78-8.72,2.92-15.85,5.08-15.94,4.81-.09-.27,6.9-2.85,15.62-5.78,8.71-2.92,15.85-5.08,15.93-4.81Z" style="fill:#1a2238;"/><path d="M314.94,230.67c.09,.27-6.91,2.85-15.62,5.78-8.72,2.92-15.85,5.08-15.94,4.81-.09-.27,6.9-2.85,15.62-5.78,8.71-2.92,15.85-5.08,15.93-4.81Z" style="fill:#1a2238;"/><path d="M316.74,236.36c.09,.27-6.91,2.85-15.62,5.78-8.71,2.92-15.85,5.08-15.94,4.81-.09-.27,6.91-2.85,15.62-5.78,8.71-2.92,15.85-5.08,15.93-4.81Z" style="fill:#1a2238;"/></g><g><path d="M439.84,214.34c-.06,.17,8.35,3.27,18.77,6.92,10.43,3.65,18.93,6.47,18.99,6.29,.06-.17-8.34-3.27-18.77-6.92-10.43-3.65-18.93-6.46-18.99-6.29Z" style="fill:#1a2238;"/><path d="M436.44,194.61c.03,.18,13.44-1.69,29.96-4.18,16.52-2.49,29.89-4.66,29.86-4.84-.03-.18-13.44,1.69-29.96,4.18-16.52,2.49-29.89,4.66-29.86,4.84Z" style="fill:#1a2238;"/><path d="M433.46,174.37c.12,.14,4.82-4.06,10.5-9.37,5.67-5.31,10.17-9.73,10.05-9.86-.12-.14-4.82,4.06-10.5,9.37-5.67,5.31-10.17,9.72-10.05,9.86Z" style="fill:#1a2238;"/></g><path d="M386.54,155.97s-.08,.34-.14,1c-.06,.78-.13,1.73-.21,2.87-.09,1.25-.17,2.77-.18,4.55-.01,1.77-.09,3.8,.01,6.03,.08,4.47,.47,9.79,1.2,15.66,.8,5.86,1.97,12.26,3.68,18.87,1.75,6.6,3.85,12.76,6.02,18.25,2.23,5.47,4.48,10.29,6.6,14.22,1,1.99,2.05,3.71,2.93,5.25,.87,1.54,1.68,2.83,2.37,3.87,.63,.95,1.15,1.74,1.58,2.39,.37,.54,.58,.81,.61,.79,.03-.02-.12-.33-.43-.91-.38-.68-.85-1.5-1.41-2.49-.63-1.07-1.39-2.38-2.21-3.95-.83-1.56-1.83-3.3-2.78-5.3-2.02-3.95-4.19-8.78-6.36-14.23-2.1-5.48-4.16-11.6-5.9-18.16-1.69-6.57-2.89-12.92-3.73-18.73-.78-5.82-1.25-11.1-1.42-15.55-.15-2.22-.13-4.23-.17-6-.05-1.77-.03-3.29,0-4.54,0-1.14,0-2.09,.01-2.87,0-.66-.03-1-.07-1.01Z" style="fill:#1a2238;"/></g><g><g><path d="M521.44,283.83h0c-19.53,0-35.36-15.83-35.36-35.36h0c0-19.53,15.83-35.37,35.36-35.37h0c19.53,0,35.37,15.83,35.37,35.36h0c0,19.53-15.83,35.37-35.37,35.37Z" style="fill:#a7b3f3;"/><g><path d="M538.21,241.18c-.08-1.8-.37-3.02-.78-4.09-.43-1.11-1.01-2.05-1.95-2.99-.94-.94-1.88-1.51-2.99-1.95-1.07-.42-2.3-.7-4.09-.78-1.8-.08-2.37-.1-6.95-.1s-5.16,.02-6.95,.1c-1.8,.08-3.02,.37-4.09,.78-1.11,.43-2.05,1.01-2.99,1.95-.94,.94-1.51,1.88-1.94,2.99-.42,1.07-.7,2.3-.78,4.09-.08,1.8-.1,2.37-.1,6.95s.02,5.16,.1,6.95c.08,1.8,.37,3.02,.78,4.09,.43,1.11,1.01,2.05,1.94,2.99,.94,.94,1.88,1.51,2.99,1.95,1.07,.42,2.3,.7,4.09,.78,1.8,.08,2.37,.1,6.95,.1s5.15-.02,6.95-.1c1.8-.08,3.02-.37,4.09-.78,1.11-.43,2.05-1.01,2.99-1.95,.94-.94,1.51-1.88,1.95-2.99,.42-1.07,.7-2.3,.78-4.09,.08-1.8,.1-2.37,.1-6.95s-.02-5.16-.1-6.95Zm-3.04,13.77c-.08,1.64-.35,2.54-.58,3.13-.31,.79-.67,1.35-1.26,1.94-.59,.59-1.15,.96-1.94,1.26-.59,.23-1.49,.51-3.13,.58-1.78,.08-2.31,.1-6.82,.1s-5.04-.02-6.82-.1c-1.64-.08-2.54-.35-3.13-.58-.79-.31-1.35-.67-1.94-1.26-.59-.59-.96-1.15-1.26-1.94-.23-.59-.51-1.49-.58-3.13-.08-1.78-.1-2.31-.1-6.82s.02-5.04,.1-6.82c.07-1.64,.35-2.54,.58-3.13,.31-.79,.67-1.35,1.26-1.94,.59-.59,1.15-.96,1.94-1.26,.59-.23,1.49-.51,3.13-.58,1.78-.08,2.31-.1,6.82-.1l6.82,.1c1.64,.08,2.54,.35,3.13,.58,.79,.31,1.35,.67,1.94,1.26,.59,.59,.96,1.15,1.26,1.94,.23,.59,.51,1.49,.58,3.13,.08,1.78,.1,2.31,.1,6.82s-.02,5.04-.1,6.82Z" style="fill:#fff;"/><path d="M521.44,239.48c-4.78,0-8.66,3.88-8.66,8.66s3.88,8.66,8.66,8.66,8.66-3.88,8.66-8.66-3.88-8.66-8.66-8.66Zm0,14.28c-3.11,0-5.62-2.52-5.62-5.62s2.52-5.62,5.62-5.62,5.62,2.52,5.62,5.62-2.52,5.62-5.62,5.62Z" style="fill:#fff;"/><path d="M530.44,237.11c-1.12,0-2.02,.91-2.02,2.02s.91,2.02,2.02,2.02,2.02-.91,2.02-2.02-.91-2.02-2.02-2.02Z" style="fill:#fff;"/></g></g><g><rect x="466.32" y="226.01" width="1" height="46.93" transform="translate(210.81 712.73) rotate(-89.19)" style="fill:#a7b3f3;"/><path d="M445.33,246.52c1.45,1.09,1.74,3.15,.65,4.59-1.09,1.45-3.15,1.74-4.59,.65-1.45-1.09-1.74-3.15-.65-4.59,1.09-1.45,3.15-1.74,4.59-.65Z" style="fill:#a7b3f3;"/></g></g><g><g><path d="M406.31,382.12h0c-19.53,0-35.36-15.83-35.36-35.36h0c0-19.53,15.83-35.37,35.36-35.37h0c19.53,0,35.37,15.83,35.37,35.36h0c0,19.53-15.83,35.37-35.37,35.37Z" style="fill:#a7b3f3;"/><path d="M390.3,359.12c2.91,1.86,6.36,2.95,10.07,2.95,12.2,0,19.09-10.3,18.68-19.54,1.28-.93,2.4-2.08,3.28-3.4-1.18,.52-2.45,.88-3.77,1.03,1.36-.81,2.4-2.1,2.89-3.63-1.27,.75-2.68,1.3-4.17,1.59-1.2-1.28-2.91-2.07-4.8-2.07-4.24,0-7.36,3.96-6.4,8.07-5.46-.27-10.3-2.89-13.54-6.87-1.72,2.95-.89,6.82,2.03,8.77-1.08-.03-2.09-.33-2.98-.82-.07,3.04,2.11,5.89,5.27,6.53-.92,.25-1.94,.31-2.97,.11,.83,2.61,3.26,4.51,6.14,4.56-2.76,2.17-6.24,3.13-9.73,2.72Z" style="fill:#fff;"/></g><rect x="397.75" y="284.98" width="1" height="33.03" transform="translate(-68.98 124.85) rotate(-16.42)" style="fill:#a7b3f3;"/><path d="M396.86,284.96c0,1.81-1.47,3.28-3.28,3.28s-3.28-1.47-3.28-3.28,1.47-3.28,3.28-3.28,3.28,1.47,3.28,3.28Z" style="fill:#a7b3f3;"/></g><g><g><path d="M319.12,129.84h0c-20.01,0-36.23-16.22-36.23-36.23h0c0-20.01,16.22-36.23,36.23-36.23h0c20.01,0,36.23,16.22,36.23,36.23h0c0,20.01-16.22,36.23-36.23,36.23Z" style="fill:#a7b3f3;"/><path d="M314.49,109.8h7.4v-18.53h5.16l.55-6.21h-5.71v-3.53c0-1.46,.29-2.04,1.71-2.04h4.01v-6.44h-5.12c-5.51,0-7.99,2.43-7.99,7.07v4.95h-3.85v6.28h3.85v18.46Z" style="fill:#fff;"/></g><rect x="319.43" y="123.3" width="1" height="42.44" style="fill:#a7b3f3;"/><path d="M316.58,166.54c.45-1.75,2.24-2.81,3.99-2.36,1.75,.45,2.81,2.24,2.36,3.99s-2.24,2.81-3.99,2.36c-1.75-.45-2.81-2.24-2.36-3.99Z" style="fill:#a7b3f3;"/></g><g><g><path d="M234.34,188.02h0c-19.53,0-35.36-15.83-35.36-35.36h0c0-19.53,15.83-35.37,35.36-35.37h0c19.53,0,35.37,15.83,35.37,35.36h0c0,19.53-15.83,35.37-35.37,35.37Z" style="fill:#a7b3f3;"/><g><path d="M253.57,151.22c-.26-10.22-8.68-18.42-19.04-18.42s-18.58,8.02-19.03,18.07c0,.28-.02,.55-.02,.83,0,3.58,1,6.91,2.73,9.76l-2.13,6.3c-.54,1.59,.96,3.12,2.56,2.61l6.69-2.13c2.73,1.5,5.87,2.35,9.2,2.35,10.52,0,19.05-8.46,19.05-18.9,0-.16,0-.32,0-.48Zm-19.04,16.37c-3.25,0-6.28-.96-8.81-2.63l-6.15,1.96,2-5.9c-1.92-2.62-3.05-5.84-3.05-9.32,0-.52,.03-1.03,.08-1.54,.78-8.04,7.63-14.35,15.93-14.35s15.32,6.46,15.96,14.65c.04,.41,.05,.82,.05,1.24,0,8.77-7.19,15.89-16.01,15.89Z" style="fill:#fff; fill-rule:evenodd;"/><path d="M243.27,155.51c-.47-.23-2.76-1.36-3.19-1.51-.43-.16-.74-.23-1.05,.23-.31,.46-1.21,1.51-1.48,1.81-.28,.31-.54,.35-1.02,.12-.46-.23-1.97-.71-3.75-2.3-1.38-1.22-2.33-2.74-2.59-3.2-.27-.46-.03-.71,.21-.95,.21-.21,.46-.54,.7-.81,.06-.08,.12-.15,.17-.22,.11-.17,.19-.33,.29-.55,.16-.31,.08-.58-.04-.81-.12-.23-1.05-2.51-1.44-3.44-.38-.93-.78-.77-1.05-.77s-.58-.04-.89-.04-.82,.12-1.25,.58c-.43,.46-1.63,1.59-1.63,3.87,0,.53,.1,1.07,.24,1.58,.47,1.63,1.49,2.98,1.67,3.21,.23,.3,3.23,5.14,7.97,7,4.75,1.85,4.75,1.23,5.61,1.15,.86-.07,2.76-1.11,3.15-2.2,.39-1.08,.39-2.01,.28-2.2-.12-.19-.43-.3-.89-.54Z" style="fill:#fff; fill-rule:evenodd;"/></g></g><rect x="259.8" y="167.2" width="1" height="33.04" transform="translate(-56.74 215.24) rotate(-40.89)" style="fill:#a7b3f3;"/><path d="M268.41,198.19c-.75-1.65-.02-3.59,1.63-4.34,1.65-.75,3.59-.02,4.34,1.63s.02,3.59-1.63,4.34c-1.65,.75-3.59,.02-4.34-1.63Z" style="fill:#a7b3f3;"/></g><g><g><path d="M571.36,405.1h65.03c2.7,0,4.88,2.19,4.88,4.88v73.45c0,2.7-2.19,4.88-4.88,4.88h-65.03c-7.34,0-13.31-5.96-13.31-13.31v-56.6c0-7.34,5.96-13.31,13.31-13.31Z" style="fill:#465066;"/><g style="opacity:.3;"><path d="M571.36,405.1h65.03c2.7,0,4.88,2.19,4.88,4.88v73.45c0,2.7-2.19,4.88-4.88,4.88h-65.03c-7.34,0-13.31-5.96-13.31-13.31v-56.6c0-7.34,5.96-13.31,13.31-13.31Z"/></g><rect x="543.11" y="405.1" width="78.85" height="83.22" rx="4.05" ry="4.05" style="fill:#465066;"/></g><g><g><path d="M533.31,304.77s-8.78-7.65-11.13-8.96c-2.35-1.32-6.37-.53-9.93-1.07-3.56-.54-8.61-2.94-9.89-2.25-1.52,.82,.07,4.27,5.51,6.41l-1.59-.14-3.87,.31s-1.43-2.11-2.65-2.09c-1.75,.02-1.69,1.46-1.69,1.46,0,0-2.65-3.12-3.52,.25,0,0-3.11-1.18-3.33,1.18,0,0-.69,1.89,5.97,2.4,0,0,5.66,5.32,7.05,5.86,1.39,.54,6.2-.2,6.2-.2,0,0,1.41,2.02,2.88,2.11,2.81,.16,10.03-.33,10.03-.33l2.84,3.39,7.11-8.33Z" style="fill:#ffc19d;"/><path d="M510.61,307.98s-.23-.41-.68-1.12c-.43-.71-1.13-1.76-1.33-3.21-.21-1.45,.45-3.2,1.69-4.7,.31-.38,.64-.76,.99-1.15,.36-.38,.7-.8,1.1-1.08,.39-.3,.86-.33,1.21,0,.36,.31,.49,.82,.47,1.35-.07,1.48-.86,2.85-1.94,3.65l-.24,.18,.23,.19c.74,.62,1.35,1.32,1.85,2.04l.13,.18,.18-.12c2.28-1.54,4.54-2.25,6.13-2.57,1.6-.32,2.56-.33,2.56-.4,0-.02-.24-.04-.68-.04-.45,0-1.1,.04-1.92,.17-1.63,.25-3.96,.91-6.33,2.46l.31,.06c-.5-.76-1.14-1.5-1.91-2.16v.38c1.19-.89,2.06-2.37,2.14-4.02,.03-.6-.13-1.31-.64-1.75-.24-.22-.59-.36-.93-.35-.35,.01-.65,.16-.89,.33-.49,.36-.81,.78-1.17,1.16-.35,.39-.69,.78-1,1.18-1.27,1.57-1.96,3.47-1.68,5.04,.27,1.56,1.04,2.59,1.52,3.27,.51,.68,.82,1.03,.84,1.01Z" style="fill:#ff9c6a;"/><path d="M501.92,298.59c-.11,.09,1.08,1.67,2.65,3.53,.4,.46,.75,.91,1.16,1.3,.42,.39,.92,.6,1.35,.65,.44,.05,.77-.05,.99-.12,.22-.07,.33-.13,.32-.16,0-.03-.14-.04-.36-.03-.22,0-.54,.05-.89-.04-.35-.09-.76-.29-1.09-.64-.34-.35-.7-.83-1.09-1.29-1.57-1.86-2.92-3.3-3.03-3.21Z" style="fill:#ff9c6a;"/><path d="M504.54,307.4c.11-.1-1.64-1.98-3.47-4.55-1.84-2.56-3.05-4.82-3.18-4.75-.12,.05,.91,2.45,2.78,5.04,1.85,2.61,3.79,4.35,3.87,4.26Z" style="fill:#ff9c6a;"/><path d="M499.01,303.94c.08-.09-1-1.27-2.26-2.81-1.28-1.52-2.31-2.76-2.42-2.68-.11,.08,.75,1.47,2.04,3,1.27,1.55,2.54,2.61,2.65,2.49Z" style="fill:#ff9c6a;"/><path d="M509.46,299.14c.02-.14-.79-.3-1.8-.37-1.01-.07-1.84-.01-1.84,.13,0,.14,.8,.3,1.8,.37,1,.07,1.82,0,1.84-.13Z" style="fill:#ff9c6a;"/></g><path d="M583.71,281.28s-9.36-.7-14.79,10.21c-3.59,7.21-14.52,26.66-14.52,26.66l-21.49-18.05-12.6,13.62s21.51,25.62,29.86,27.56,18.2-3.73,21.29-8.1c3.08-4.37,13.35-15.04,13.35-15.04l-1.1-36.87Z" style="fill:#ff5c36;"/></g><g><path d="M586.32,304.37l1.49-24.15c.04-18.75-1.89-40.44,.41-46.57,4.24-11.32,19.44-13.75,19.44-13.75,20.52-2.09,24.67,13.6,27.18,27.93,.43,2.43,1.59,6.74,3.07,11.71,3.36,10.35,7.51,20.96,15.33,27.83,2.98,2.62,5.05,6.37,5.83,10.27,.78,3.9-1.16,8.68-5.06,9.45,2.06,1.84,3.2,4.66,3.01,7.42-.19,2.76-1.72,5.39-4.01,6.93-3.23,2.17-7.44,2.05-11.32,1.72-3.85-.33-7.9-.86-10.99-3.18-3.1-2.32-4.77-6.06-6.06-9.72-1.55-4.4-2.75-8.92-3.6-13.51l-34.72,7.63Z" style="fill:#1a2238;"/><path d="M606.92,225.19l1.46-1.02,12.89,7.66c1.97,.42,3.3,2.27,3.05,4.27l-8.49,44.44c-.45,3.04-.02,5.91-2.23,8.05l-15.11,14.19c-5.3,5.13-2.92-7.6-5.41-14.54-.17-.49,1.14-1.99,1.11-2.32-.01-.41-.08-.69-.05-1.03,.15-3.67,.61-6.79,.61-6.79,.37-3.99,.54-5.63,.53-5.59,0,0-8.27-2.27-8.88-13.43-.3-5.55,1.05-12.91,2.5-20.14,2-10,9.92-15.01,18.02-13.75Z" style="fill:#ffc19d;"/><path d="M603.73,248.38c-.1,.74,.44,1.44,1.21,1.56,.77,.12,1.48-.38,1.58-1.12,.1-.74-.44-1.44-1.21-1.56-.77-.12-1.48,.38-1.58,1.12Z" style="fill:#1a2238;"/><path d="M589.99,246.21c-.1,.74,.44,1.44,1.21,1.56,.77,.12,1.48-.38,1.58-1.12,.1-.74-.44-1.44-1.21-1.56-.77-.12-1.48,.38-1.58,1.12Z" style="fill:#1a2238;"/><path d="M589.85,242.57c.16,.2,1.3-.48,2.82-.32,1.52,.14,2.55,1.03,2.73,.87,.09-.07-.05-.42-.5-.83-.44-.4-1.22-.83-2.16-.92-.94-.09-1.77,.17-2.27,.48-.5,.31-.7,.62-.62,.72Z" style="fill:#1a2238;"/><path d="M604.48,244.56c.18,.18,1.25-.61,2.77-.6,1.52-.02,2.64,.77,2.8,.58,.08-.08-.1-.42-.58-.77-.48-.35-1.3-.7-2.24-.69-.95,0-1.75,.35-2.21,.71-.47,.36-.63,.69-.54,.78Z" style="fill:#1a2238;"/><path d="M598.19,254.69c.02-.09-.91-.35-2.41-.7-.38-.08-.74-.19-.78-.47-.06-.29,.14-.69,.38-1.12,.46-.9,.94-1.84,1.45-2.83,2.02-4.03,3.53-7.36,3.37-7.44-.16-.08-1.94,3.12-3.96,7.15-.49,.99-.96,1.94-1.4,2.85-.19,.42-.5,.9-.36,1.5,.07,.3,.34,.54,.58,.63,.24,.1,.46,.13,.65,.16,1.53,.24,2.48,.35,2.49,.26Z" style="fill:#1a2238;"/><path d="M595.29,272.51s7.34,1.24,15.11-2.4c0,0-4.48,7.22-15.37,5.05l.26-2.65Z" style="fill:#ff9c6a;"/><path d="M604.65,238.36c.14,.42,1.66,.27,3.44,.53,1.79,.23,3.21,.8,3.46,.43,.11-.17-.13-.57-.7-.99-.57-.42-1.48-.82-2.54-.97-1.07-.15-2.06,0-2.71,.24-.66,.25-1,.56-.94,.76Z" style="fill:#1a2238;"/><path d="M590.82,236.48c.22,.41,.49,.29,1.94,.64,1.47,.3,3.66,.97,4.03,.69,.17-.14,.06-.52-.4-.98-.45-.45-1.27-.93-2.28-1.15-1-.22-1.95-.13-2.54,.08-.6,.22-.85,.52-.76,.72Z" style="fill:#1a2238;"/><path d="M621.1,255.19s-6.76,1.23-12.99-17.49c-2.1-6.32-2.2-13.91-2.2-13.91l2.56-.36s14.52,6.62,14.75,6.85c.23,.23,2.62,8.45,2.62,8.45l-4.73,16.45Z" style="fill:#1a2238;"/><path d="M619.31,254.19c.09-.82,1.23-2.65,2.05-2.69,2.19-.11,6.06,.46,5.53,5.94-.73,7.49-8.1,5.22-8.09,5,0-.17,.21-5.43,.51-8.25Z" style="fill:#ffc19d;"/><path d="M621.36,259.83s.12,.1,.33,.23c.21,.12,.57,.22,.97,.11,.82-.21,1.61-1.41,1.77-2.75,.09-.68,0-1.34-.18-1.9-.18-.57-.49-.99-.88-1.1-.39-.13-.69,.08-.8,.28-.12,.2-.09,.35-.13,.36-.02,.02-.15-.14-.06-.44,.05-.15,.15-.31,.34-.44,.19-.13,.47-.18,.74-.12,.57,.1,1.04,.68,1.25,1.29,.24,.62,.35,1.37,.25,2.13-.19,1.5-1.1,2.84-2.22,3.05-.54,.09-.96-.12-1.17-.31-.21-.21-.24-.38-.21-.39Z" style="fill:#ff9c6a;"/><path d="M622.67,263.25c.01,1.07-.84,1.94-1.91,1.95-1.07,.01-1.94-.84-1.95-1.91s.84-1.94,1.91-1.95c1.07-.01,1.94,.84,1.95,1.91Z" style="fill:#465066;"/><path d="M646.1,228.32c-2.07-2.56-5.67-3.73-8.88-3.02-3.18,.7-5.91,3.18-6.92,6.28l-.91,18.85c1.25,.55,2.81,.26,3.78-.7,.97-.96,1.28-2.52,.75-3.77,.89,1.46,2.73,2.32,4.41,1.98,1.68-.35,3.05-1.93,3.05-3.65,0-1.39-.93-2.72-2.2-3.24,2.9,.49,6.07-.94,7.62-3.48,1.71-2.81,1.36-6.68-.7-9.25Z" style="fill:#1a2238;"/><path d="M632.59,246.19s-.11,.09-.34,.21c-.24,.11-.57,.33-1.04,.5-.92,.4-2.33,.83-4.13,1.01-1.79,.19-3.98,.04-6.28-.61-2.3-.66-4.7-1.86-6.79-3.67-2.07-1.83-3.63-4-4.7-6.13-1.08-2.13-1.71-4.2-2.07-5.96-.36-1.76-.48-3.22-.5-4.22-.02-.5,0-.89,0-1.15,.01-.26,.02-.4,.04-.4,.04,0,.06,.55,.13,1.55,.07,.99,.24,2.43,.63,4.16,.39,1.73,1.05,3.76,2.13,5.84,1.07,2.08,2.61,4.19,4.63,5.98,2.04,1.76,4.37,2.95,6.61,3.61,2.24,.66,4.37,.84,6.13,.7,3.56-.27,5.51-1.53,5.54-1.4Z" style="fill:#465066;"/><path d="M632.89,248.58s-.15,.49-.66,1.11c-.5,.62-1.33,1.39-2.42,1.97-1.09,.57-2.19,.83-2.99,.89-.8,.06-1.29-.03-1.29-.08-.01-.14,1.98-.09,4.06-1.21,2.1-1.09,3.18-2.76,3.29-2.67Z" style="fill:#465066;"/><path d="M634.71,248.02c-.07,0-.24-.97-.54-2.55-.3-1.58-.75-3.74-1.36-6.11-.62-2.37-1.28-4.48-1.79-6-.51-1.52-.84-2.46-.77-2.48,.05-.02,.49,.87,1.08,2.38,.59,1.5,1.31,3.61,1.93,5.99,.62,2.38,1.02,4.58,1.24,6.17,.22,1.6,.27,2.59,.22,2.6Z" style="fill:#465066;"/><path d="M602.36,259.58c0-.56-.24-1.09-.58-1.48-.69-.78-1.82-1-2.74-.54-.92,.46-1.56,1.58-1.55,2.7h0c.38,.71,1.04,1.24,1.82,1.42,.12,.03,.25,.05,.37,.06,.6,.07,1.25-.05,1.77-.43,.52-.38,.9-1.04,.91-1.74Z" style="fill:#ff9c6a;"/><path d="M601.86,256.75c-.24-.03-.37,1.56-1.83,2.57-1.45,1.02-3.13,.7-3.16,.92-.03,.1,.35,.34,1.07,.42,.7,.08,1.74-.06,2.63-.68,.89-.62,1.32-1.52,1.43-2.17,.12-.66-.03-1.07-.14-1.07Z" style="fill:#1a2238;"/></g><g><g><path d="M582.62,281.27s-11.55,15.59-12.5,20.99c-.95,5.4,1.73,40.33,3.11,46.37l-8.94,20.11,15.29,3.58,50.8-.87-2.14-33.43,5.14-22.22,.53-29.23-18.07-6.01c-4.74,9.57-20.34,6.43-21.18-1.23l-12.04,1.94Z" style="fill:#ff5c36;"/><path d="M633.91,286.56s6.22,2.24,9.79,9.41c2.88,5.78,10.77,30.81,12.73,37.15,2.16,6.99,2.85,12.92-1.09,17.72-1.14,1.38-1.33,3.05-9.64,6.52-8.23,3.43-30.05,10.04-30.05,10.04l-4.55-11.29,26.81-16.45-7.74-20.87,3.74-32.23Z" style="fill:#ff5c36;"/><path d="M635.92,307.98c.14,.03-1.48,6.73-3.62,14.95-2.13,8.22-3.97,14.86-4.11,14.83s1.48-6.73,3.62-14.95c2.13-8.22,3.97-14.86,4.11-14.83Z" style="fill:#1a2238;"/><g><path d="M588.09,359.22l2.18-1.03-.81,.99s-1.06,1.12-.73,2.36,2.59,1.5,2.59,1.5c0,0-.2,1.3,.65,2.43,.79,1.06,3.82,.28,3.82,.28l-.42,.9c-.51,.96,.72,2.16,1.29,2.31,.57,.15,2.79-.48,3.8-1.14,1-.66,4.68-.36,4.68-.36,0,0,4.61,1.47,6.57,.77,1.96-.7,2.53-2.13,2.53-2.13,0,0-.33-8.63-3.15-10-1.44-.7-9.82-3.91-12.32-4.98-.84-.36-1.79-.38-2.65-.06-2.71,1.02-7.63,3.07-8.86,4.01,0,0-2.15,1.35-1.72,2.64,.25,.74,.94,1.81,2.54,1.49Z" style="fill:#ffc19d;"/><path d="M594.44,355.28s-.94,.81-2.18,1.7c-1.24,.89-2.27,1.58-2.31,1.53-.03-.05,.94-.81,2.18-1.7,1.24-.89,2.27-1.58,2.31-1.53Z" style="fill:#ff9c6a;"/><path d="M596.66,360.05c.03,.06-1.23,.61-2.7,1.45-1.46,.84-2.61,1.6-2.65,1.54-.02-.02,.25-.24,.71-.56,.45-.32,1.1-.75,1.83-1.17,.74-.42,1.43-.75,1.95-.97,.51-.22,.84-.32,.85-.3Z" style="fill:#ff9c6a;"/><path d="M599.77,363.52c.03,.05-.9,.62-2.07,1.28-1.17,.65-2.15,1.14-2.18,1.09-.03-.05,.9-.62,2.07-1.28,1.17-.65,2.15-1.14,2.18-1.09Z" style="fill:#ff9c6a;"/></g><path d="M572.44,293.25s.01,.17-.02,.5c-.04,.38-.1,.85-.16,1.41-.16,1.22-.36,3-.57,5.19-.44,4.38-.83,10.46-.77,17.18,.07,6.72,.58,12.79,1.1,17.16,.26,2.19,.49,3.96,.67,5.18,.07,.56,.13,1.03,.18,1.41,.04,.32,.05,.49,.03,.5-.02,0-.06-.16-.13-.48-.08-.38-.17-.84-.28-1.39-.24-1.21-.53-2.97-.83-5.16-.61-4.37-1.18-10.46-1.25-17.21-.06-6.74,.4-12.84,.93-17.22,.26-2.19,.52-3.96,.74-5.18,.1-.56,.19-1.02,.26-1.4,.06-.32,.11-.48,.12-.48Z" style="fill:#1a2238;"/></g><g><g><g><path d="M548.15,475.7l11.25,17.16s-13.08,17.17-11.3,20.54l32.94-20.56-16.47-27.45-16.42,10.32Z" style="fill:#465066;"/><path d="M568.69,485.02c.75-.22,1.64,.25,1.89,1.01,.26,.76-.18,1.68-.93,1.91-.74,.23-1.83-.29-2-1.08-.17-.78,.4-1.83,1.18-1.88" style="fill:#e1e1e1;"/><path d="M581.04,492.83l-1.76-2.7-30.93,20.73s-1.07,1.57-.25,2.54l32.94-20.56Z" style="fill:#1a2238;"/><path d="M558.76,493.01c.11,.16,.96-.26,2.07-.22,1.12,.01,1.96,.48,2.07,.32,.13-.12-.71-.97-2.07-.99-1.35-.04-2.2,.77-2.08,.9Z" style="fill:#fff;"/><path d="M556.2,496.65c.06,.18,.93,.03,1.9,.39,.98,.33,1.58,1.01,1.74,.9,.17-.07-.31-1.11-1.53-1.54-1.21-.44-2.2,.08-2.11,.24Z" style="fill:#fff;"/><path d="M556.83,502.15c.17-.06-.11-1.03-1.08-1.68-.96-.66-1.94-.55-1.92-.36,0,.19,.78,.38,1.56,.93,.8,.53,1.27,1.2,1.44,1.12Z" style="fill:#fff;"/><path d="M556.62,488.82c.16,.11,.76-.58,1.71-1.08,.94-.52,1.84-.65,1.83-.85,.02-.18-1.04-.36-2.15,.25-1.11,.6-1.55,1.6-1.39,1.68Z" style="fill:#fff;"/></g><path d="M582.03,371.44s-54.12,18.04-63.01,25.23c-7.16,5.79-6.22,22.38-2.06,29.01,1.69,2.7,39.07,65.4,39.07,65.4l18.56-10.14-25-61.23s61.05-11.85,72.35-16.94c13.98-6.3,9.51-20.82,9.51-20.82l-2.45-10.51h-46.96Z" style="fill:#1a2238;"/><g><path d="M561.95,458.68l11.25,17.16s-13.08,17.17-11.3,20.54l32.94-20.56-16.46-27.45-16.42,10.32Z" style="fill:#465066;"/><path d="M582.49,468c.75-.22,1.64,.25,1.89,1.01,.26,.76-.18,1.68-.93,1.91-.74,.23-1.83-.29-2-1.08-.17-.78,.4-1.83,1.18-1.88" style="fill:#e1e1e1;"/><path d="M594.84,475.81l-1.76-2.7-30.93,20.73s-1.07,1.57-.25,2.54l32.94-20.56Z" style="fill:#1a2238;"/><path d="M573.19,475.99c.11,.16,.96-.26,2.07-.22,1.12,.01,1.96,.48,2.07,.32,.13-.12-.71-.97-2.07-.99-1.35-.04-2.2,.77-2.08,.9Z" style="fill:#fff;"/><path d="M570.59,479.72c.06,.18,.93,.03,1.9,.39,.98,.33,1.58,1.01,1.74,.9,.17-.07-.31-1.11-1.53-1.54-1.21-.44-2.2,.08-2.11,.24Z" style="fill:#fff;"/><path d="M571.22,485.3c.17-.06-.11-1.03-1.08-1.68-.96-.66-1.94-.55-1.92-.36,0,.19,.78,.38,1.56,.93,.8,.53,1.27,1.2,1.44,1.12Z" style="fill:#fff;"/><path d="M571.42,472.86c.16,.11,.76-.58,1.71-1.08,.94-.52,1.84-.65,1.83-.85,.02-.18-1.04-.36-2.15,.25-1.11,.6-1.55,1.6-1.39,1.68Z" style="fill:#fff;"/></g><g><path d="M523.75,373c-3.11,2.87-7.86,12.26-2.8,23.3,3.21,7,47.49,75.46,47.49,75.46l17.97-11.83s-15.39-32.27-20.53-47.39c-3.91-11.49-12.59-29.21-13.15-30.37h0l27.91-10.25s-29.83-9.47-40.68-7.15c-10.86,2.32-16.2,8.23-16.2,8.23Z" style="fill:#1a2238;"/><path d="M523.75,373s.23-.28,.75-.77c.52-.48,1.32-1.18,2.45-1.98,2.24-1.6,5.83-3.69,10.87-5.08,.63-.16,1.28-.32,1.95-.48,.68-.13,1.39-.2,2.1-.31,1.44-.09,2.97-.14,4.55-.02,3.16,.17,6.57,.63,10.18,1.31,7.23,1.34,15.32,3.38,24.09,6.06l.56,.17-.55,.2c-8.43,3.1-17.85,6.58-27.9,10.28l.13-.31c2.16,4.42,4.31,9.02,6.44,13.79,2.12,4.77,4.24,9.69,6.11,14.84,1.77,5.18,3.81,10.36,6.03,15.6,2.2,5.23,4.54,10.52,6.94,15.86,2.72,6.02,5.45,11.93,8.17,17.67l.09,.2-.18,.12c-6.18,4.07-12.19,8.02-17.97,11.83l-.21,.14-.13-.21c-8.93-13.84-17.22-26.77-24.6-38.41-7.38-11.64-13.89-21.96-19.12-30.64-1.3-2.18-2.54-4.24-3.58-6.28-.94-2.08-1.6-4.13-1.96-6.1-.33-1.97-.41-3.84-.29-5.54,.16-1.7,.43-3.23,.84-4.56,.8-2.67,1.92-4.55,2.76-5.72,.86-1.17,1.46-1.64,1.46-1.64,0,0-.12,.14-.37,.41-.26,.26-.6,.69-1.02,1.28-.82,1.18-1.9,3.05-2.67,5.71-.39,1.33-.66,2.85-.8,4.53-.1,1.69-.01,3.53,.32,5.48,.36,1.95,1.03,3.98,1.97,6.03,1.03,2.01,2.29,4.06,3.59,6.23,5.27,8.66,11.8,18.96,19.21,30.58,7.41,11.62,15.72,24.54,24.66,38.37l-.34-.07c5.77-3.81,11.78-7.76,17.96-11.84l-.09,.32c-2.73-5.74-5.46-11.65-8.18-17.67-2.41-5.34-4.74-10.63-6.95-15.87-2.21-5.23-4.26-10.45-6.03-15.63-1.86-5.13-3.97-10.05-6.08-14.82-2.12-4.76-4.27-9.36-6.42-13.78l-.11-.23,.24-.09c10.06-3.68,19.48-7.13,27.92-10.22v.38c-8.73-2.7-16.82-4.76-24.02-6.12-3.6-.69-6.99-1.16-10.13-1.35-1.57-.12-3.08-.09-4.51,0-.71,.1-1.4,.17-2.08,.29-.67,.16-1.31,.32-1.94,.47-5.03,1.35-8.61,3.39-10.87,4.96-1.13,.79-1.94,1.46-2.48,1.93-.46,.42-.67,.61-.79,.73Z" style="fill:#465066;"/></g></g><path d="M546.19,375.54c.07-.11,1.94,1.06,3.81,3.02,1.87,1.95,2.95,3.88,2.84,3.95-.12,.08-1.37-1.68-3.2-3.6-1.82-1.92-3.53-3.25-3.44-3.37Z" style="fill:#465066;"/><path d="M561.95,458.68s.08-.06,.26-.19c.21-.14,.48-.31,.82-.54,.76-.49,1.84-1.18,3.21-2.07,2.86-1.82,6.95-4.43,12.04-7.68l.16-.1,.1,.16c4.4,7.3,10.11,16.78,16.53,27.41l.13,.21-.21,.13c-4.27,2.67-8.81,5.5-13.47,8.42-6.85,4.27-13.42,8.37-19.48,12.14l-.24,.15-.11-.24c-.29-.63-.2-1.26-.08-1.81,.11-.57,.3-1.1,.49-1.62,.41-1.04,.89-2.02,1.39-2.97,1.01-1.89,2.11-3.65,3.19-5.33,2.19-3.35,4.35-6.36,6.38-9.03v.22c-3.45-5.32-6.24-9.64-8.18-12.66-.94-1.46-1.67-2.61-2.19-3.42-.23-.37-.42-.66-.56-.88-.12-.2-.18-.3-.17-.3,0,0,.08,.11,.22,.31,.15,.22,.35,.52,.61,.89,.54,.81,1.31,1.95,2.29,3.4,1.97,2.97,4.8,7.21,8.28,12.45l.07,.11-.08,.11c-2,2.68-4.14,5.7-6.3,9.05-1.07,1.68-2.15,3.44-3.15,5.31-.5,.94-.97,1.91-1.36,2.92-.19,.51-.37,1.02-.47,1.55-.11,.52-.15,1.08,.04,1.49l-.35-.09c6.05-3.78,12.61-7.89,19.46-12.17,4.67-2.91,9.2-5.74,13.48-8.41l-.08,.34c-6.36-10.66-12.04-20.16-16.4-27.48l.25,.06c-5.09,3.15-9.19,5.68-12.05,7.45-1.41,.86-2.51,1.54-3.29,2.02-.36,.22-.65,.39-.87,.52-.2,.12-.3,.18-.31,.17Z" style="fill:#1a2238;"/></g><g style="opacity:.3;"><polygon points="525.47 371.44 566.57 373.36 630.43 377.62 628.99 371.44 630.38 371.44 630.24 369.36 528.4 369.36 525.47 371.44"/></g><path d="M633.2,326.98s.17,.31,.42,.91c.27,.68,.62,1.54,1.03,2.59,.89,2.32,2.08,5.45,3.48,9.1l.07,.18-.17,.11c-2.15,1.32-4.49,2.77-6.95,4.29-5.11,3.13-9.75,5.94-13.12,7.96-1.63,.96-2.98,1.76-4.01,2.36-.95,.55-1.49,.84-1.51,.81-.02-.03,.48-.38,1.4-.98,1-.64,2.32-1.48,3.92-2.5,3.32-2.09,7.93-4.95,13.04-8.09,2.47-1.51,4.82-2.94,6.97-4.25l-.1,.29c-1.32-3.68-2.46-6.83-3.3-9.16-.37-1.07-.67-1.95-.91-2.64-.2-.62-.3-.95-.27-.96Z" style="fill:#1a2238;"/></g><g><path d="M517.95,321.43l54.51,2.71c1.77,.07,3.42,.99,3.62,2.75l4.31,39.99,28.09,1.17c.9,.04,1.61,.8,1.57,1.71-.04,.9-.8,1.61-1.71,1.57l-27.6-1.15-5.24-.22-56.87-2.36-4.39-42.2c-.24-2.18,1.52-4.06,3.71-3.97Z" style="fill:#e1e1e1;"/><path d="M517.95,321.43s-.3-.05-.86,.04c-.55,.1-1.42,.41-2.14,1.29-.36,.43-.64,1.02-.75,1.71-.12,.7,.05,1.45,.11,2.25,.16,1.62,.35,3.48,.56,5.57,.85,8.38,2.09,20.46,3.6,35.31v.14s.16,0,.16,0c23.21,.98,53.71,2.26,87.02,3.66,.78,.03,1.56,.06,2.34,.1,.36,.03,.86,.03,1.25-.18,.4-.2,.71-.54,.88-.95,.36-.82,.01-1.85-.75-2.3-.36-.24-.86-.28-1.22-.28l-1.15-.05c-3.07-.13-6.11-.25-9.11-.38-6-.25-11.85-.49-17.49-.72l.2,.19c-1.55-14.32-3-27.68-4.31-39.67-.03-.76-.34-1.59-.92-2.12-.57-.55-1.31-.86-2.05-1.01-.75-.15-1.48-.11-2.2-.17-.72-.03-1.43-.07-2.14-.1-2.83-.14-5.57-.27-8.21-.4-5.28-.25-10.15-.49-14.59-.7-8.85-.41-15.91-.74-20.77-.97-2.41-.1-4.28-.19-5.56-.24-.62-.02-1.1-.04-1.43-.05-.32,0-.49,0-.49,0,0,0,.16,.02,.49,.04,.33,.02,.81,.05,1.43,.09,1.28,.07,3.14,.18,5.55,.31,4.86,.26,11.91,.63,20.76,1.09,4.43,.23,9.31,.48,14.58,.75,2.64,.13,5.38,.27,8.21,.42,.71,.04,1.42,.07,2.14,.11,.72,.05,1.46,.03,2.14,.17,.69,.14,1.36,.43,1.87,.92,.52,.49,.77,1.15,.81,1.9,1.28,11.99,2.71,25.35,4.25,39.67l.02,.18h.18c5.63,.24,11.48,.49,17.49,.74,3,.13,6.04,.25,9.11,.38l1.15,.05c.41,0,.71,.03,1.01,.22,.58,.34,.85,1.13,.57,1.76-.13,.31-.37,.57-.67,.72-.31,.16-.62,.17-1.03,.14-.78-.03-1.56-.06-2.34-.1-33.31-1.36-63.82-2.61-87.03-3.56l.16,.15c-1.58-14.84-2.86-26.92-3.75-35.3-.23-2.09-.43-3.95-.6-5.56-.06-.81-.24-1.55-.13-2.22,.1-.67,.36-1.24,.7-1.67,.68-.88,1.53-1.19,2.07-1.31,.56-.11,.85-.07,.85-.09Z" style="fill:#1a2238;"/><path d="M547.59,345.22c-.08,1.89-1.67,3.35-3.56,3.27-1.89-.08-3.35-1.67-3.27-3.56,.08-1.89,1.67-3.35,3.56-3.27,1.89,.08,3.35,1.67,3.27,3.56Z" style="fill:#fff;"/><path d="M578.05,369.69c-.08,0-1.39-10.18-2.94-22.76-1.55-12.58-2.74-22.79-2.66-22.8,.08,0,1.39,10.18,2.94,22.76,1.54,12.58,2.73,22.79,2.66,22.8Z" style="fill:#1a2238;"/></g></g><g><g><g><g><path d="M143.04,458.99l-.77,20.17s20.25,7.55,20.47,11.3l-39.16-.08-.09-31.48,19.56,.09Z" style="fill:#1a2238;"/><path d="M130.17,477.44c-.76,.21-1.28,1.06-1.11,1.82,.17,.77,1.04,1.31,1.8,1.12,.76-.19,1.42-1.19,1.16-1.94-.26-.74-1.3-1.32-2-.95" style="fill:#e1e1e1;"/><path d="M123.58,490.38l.11-3.17,37.51,1.27s1.74,.76,1.54,1.99l-39.16-.08Z" style="fill:#465066;"/><path d="M142.91,478.97c0,.19-.96,.28-1.91,.89-.96,.59-1.45,1.42-1.62,1.34-.18-.04,.11-1.18,1.27-1.9,1.15-.73,2.3-.5,2.26-.33Z" style="fill:#fff;"/><path d="M147.01,480.67c.04,.19-.79,.51-1.44,1.32-.67,.79-.84,1.66-1.03,1.65-.18,.03-.31-1.09,.52-2.08,.82-1,1.95-1.07,1.95-.89Z" style="fill:#fff;"/><path d="M149.34,485.59c-.17,.04-.44-.92,.06-1.96,.49-1.05,1.39-1.46,1.47-1.3,.11,.16-.47,.72-.87,1.58-.41,.86-.47,1.66-.66,1.68Z" style="fill:#fff;"/><path d="M142.57,474.35c-.08,.17-.96-.09-2.04-.02-1.08,.05-1.92,.41-2.02,.25-.11-.14,.71-.84,1.99-.91,1.27-.08,2.17,.53,2.08,.68Z" style="fill:#fff;"/></g><g><path d="M95.1,456.25l-2.12,24.33,3.87,19.73c.28,1.42-.7,2.78-2.14,2.96h0c-.81,.1-1.6-.19-2.15-.78-3.49-3.81-16.26-17.87-16.01-19.64,.3-2.05,.53-25.81,.53-25.81l18.02-.78Z" style="fill:#1a2238;"/><path d="M94.71,503.27l-18.05-22.07-.07,1.03c-.06,.89,.2,1.78,.73,2.49,1.43,1.92,5.5,7.13,15.16,17.75,.56,.62,1.4,.92,2.23,.79h0Z" style="fill:#465066;"/><g style="opacity:.6;"><path d="M82.16,473.66c.58,.46,.72,1.4,.29,2-.44,.6-1.39,.75-1.98,.3-.59-.45-.79-1.57-.29-2.12,.5-.55,1.63-.67,2.09-.09" style="fill:#fff;"/></g><path d="M89.82,492.26c.13,.08,.76-1.17,2.26-1.76,1.48-.64,2.8-.21,2.84-.36,.03-.06-.27-.27-.84-.38-.56-.12-1.39-.09-2.21,.25-.82,.34-1.42,.91-1.73,1.39-.32,.48-.38,.84-.32,.86Z" style="fill:#fff;"/><path d="M91.35,495.64c.11,.11,.94-.63,2.23-.91,1.28-.31,2.35,0,2.4-.15,.08-.12-1.06-.71-2.52-.37-1.46,.33-2.23,1.36-2.11,1.43Z" style="fill:#fff;"/><path d="M86.86,487.87c.11,.12,1.38-1.03,3.34-1.64,1.95-.64,3.65-.45,3.67-.61,.05-.13-1.74-.58-3.83,.1-2.1,.66-3.29,2.07-3.18,2.15Z" style="fill:#fff;"/><path d="M86.88,480.42c.06,.15,1.44-.33,3.19-.28,1.76,.02,3.12,.56,3.18,.41,.07-.12-1.28-.92-3.17-.95-1.89-.05-3.28,.69-3.21,.81Z" style="fill:#fff;"/><path d="M87.33,473.27c.07,.15,1.47-.58,3.32-.38,1.85,.16,3.09,1.15,3.18,1.02,.04-.05-.2-.37-.74-.73-.54-.36-1.39-.72-2.38-.82-1-.1-1.9,.09-2.5,.34-.6,.25-.91,.52-.87,.57Z" style="fill:#fff;"/><path d="M90.69,471.53s.11-.32,.09-.92c-.02-.59-.13-1.47-.58-2.46-.23-.47-.47-1.07-1.13-1.43-.33-.18-.84-.15-1.15,.15-.31,.3-.42,.69-.46,1.08-.07,1.55,1.16,3.13,2.88,3.46,1.73,.3,3.38-.59,4.16-1.88,.17-.34,.31-.75,.14-1.18-.16-.43-.64-.62-1-.59-.73,.06-1.21,.45-1.66,.73-.88,.62-1.45,1.3-1.78,1.79-.34,.49-.46,.8-.43,.82,.08,.07,.69-1.16,2.42-2.29,.43-.26,.94-.59,1.46-.6,.26,0,.47,.11,.54,.32,.08,.2,.01,.51-.14,.77-.65,1.06-2.16,1.87-3.62,1.59-1.46-.27-2.54-1.66-2.49-2.91,.02-.3,.11-.6,.29-.76,.17-.16,.41-.2,.63-.09,.46,.22,.75,.75,.98,1.2,.91,1.86,.72,3.23,.83,3.22Z" style="fill:#fff;"/></g><path d="M161.91,288.95s2.97,11.5,1.89,25.5c-.42,5.42-18.71,155.36-18.71,155.36h-24.69l6.94-140.92-2.02,.44s-13.48,60.1-14.58,69.83c-.99,8.75-12.36,72.29-12.36,72.29l-22.58,.26,7.21-84.05,8.39-80.65,3.16-23.48,67.34,5.41Z" style="fill:#1a2238;"/></g><g><path d="M127.99,319.51s.04,.07,.16,.17c.12,.09,.32,.21,.6,.28,.56,.16,1.49,.08,2.34-.55,.89-.62,1.42-1.86,1.6-3.19,.18-1.34,.2-2.78,.3-4.31,.17-3.05,.29-5.81,.35-7.81,.07-2,.07-3.24,0-3.24s-.19,1.23-.35,3.22c-.15,2-.33,4.76-.5,7.81-.1,1.52-.12,2.99-.26,4.28-.15,1.28-.61,2.4-1.37,2.98-.74,.6-1.58,.73-2.1,.64-.53-.08-.77-.31-.8-.27Z" style="fill:#465066;"/><path d="M91.67,305.02s.24,.13,.69,.25c.46,.12,1.13,.26,1.97,.33,1.68,.16,4.09,0,6.51-.97,2.42-.97,4.27-2.52,5.37-3.8,.56-.64,.95-1.2,1.2-1.6,.24-.4,.35-.64,.33-.66-.07-.05-.62,.84-1.77,2.03-1.14,1.19-2.96,2.65-5.3,3.59-2.34,.94-4.66,1.15-6.31,1.08-1.66-.06-2.67-.32-2.69-.24Z" style="fill:#465066;"/><path d="M153.62,298.74c-.05,0,0,.97,.37,2.48,.38,1.5,1.17,3.54,2.48,5.52,1.32,1.98,2.89,3.5,4.13,4.43,1.24,.94,2.12,1.35,2.14,1.31,.11-.13-3.3-2.07-5.87-6-2.63-3.89-3.1-7.79-3.26-7.74Z" style="fill:#465066;"/></g></g><g><g><path d="M149.7,138.78c2.23,.14,4.42-1.6,4.79-3.81,.36-2.21-1.15-4.56-3.31-5.15,1.31-1.48,1.54-3.82,.54-5.53-1-1.71-3.14-2.66-5.08-2.25-.18-1.94-1.44-3.75-3.2-4.6-1.76-.84-3.96-.69-5.59,.39-2.25-1.74-5.73-1.63-7.86,.24-1.91-.25-3.93,.86-4.73,2.61-.8,1.75-.33,4.01,1.12,5.29" style="fill:#1a2238;"/><g><g><path d="M129.24,122.61l1-.05c10.08-.5,18.85,6.82,20.16,16.82,1.22,9.3,2.44,19.6,2.63,24.61,.39,10.38-9.91,12.51-9.91,12.51l1.5,12.42-25.22,.47-4.47-45.1c-1.46-10.73,3.56-20.52,14.32-21.69Z" style="fill:#ffc19d;"/><path d="M143.2,176.49s-6.61,.73-13.79-3.3c0,0,3.73,7.5,14.04,6.05l-.24-2.75Z" style="fill:#ff9c6a;"/><path d="M148.2,149.3c.07,.78-.54,1.48-1.35,1.57-.81,.08-1.53-.48-1.59-1.26-.07-.78,.54-1.48,1.35-1.57,.81-.08,1.53,.48,1.6,1.26Z" style="fill:#1a2238;"/><path d="M148.42,144.57c-.17,.2-1.34-.57-2.93-.49-1.59,.06-2.72,.94-2.91,.75-.09-.08,.08-.44,.57-.84,.48-.39,1.32-.8,2.31-.84,.99-.04,1.85,.28,2.35,.63,.51,.35,.69,.69,.61,.78Z" style="fill:#1a2238;"/><path d="M134.11,149.92c.07,.78-.54,1.48-1.35,1.57-.81,.08-1.53-.48-1.59-1.26-.07-.78,.54-1.48,1.35-1.57,.81-.08,1.53,.48,1.6,1.26Z" style="fill:#1a2238;"/><path d="M133.49,145.65c-.17,.2-1.34-.57-2.93-.49-1.59,.06-2.72,.94-2.91,.75-.09-.08,.08-.44,.57-.84,.48-.39,1.32-.8,2.31-.84,.99-.04,1.85,.28,2.35,.63,.51,.35,.69,.69,.61,.78Z" style="fill:#1a2238;"/><path d="M139.13,157.19c-.01-.09,.97-.31,2.57-.6,.41-.06,.79-.16,.84-.44,.08-.3-.11-.73-.33-1.19-.43-.97-.88-1.98-1.36-3.04-1.89-4.33-3.28-7.9-3.11-7.98,.18-.07,1.85,3.38,3.74,7.71,.46,1.07,.89,2.09,1.31,3.06,.18,.46,.47,.97,.29,1.59-.09,.31-.38,.55-.64,.63-.26,.09-.49,.11-.69,.13-1.61,.17-2.61,.22-2.62,.13Z" style="fill:#1a2238;"/><path d="M133.84,139.45c-.19,.41-1.58,.04-3.26,.07-1.69,0-3.09,.38-3.26-.03-.08-.2,.2-.57,.79-.93,.59-.35,1.49-.65,2.5-.66,1.01,0,1.9,.28,2.47,.63,.58,.35,.84,.72,.76,.92Z" style="fill:#1a2238;"/><path d="M148.17,138c-.32,.38-1.65,.07-3.24,.13-1.58,.01-2.91,.39-3.24,.03-.14-.18,.05-.55,.62-.92,.56-.37,1.51-.7,2.6-.72,1.09-.03,2.05,.26,2.62,.6,.58,.34,.78,.71,.64,.89Z" style="fill:#1a2238;"/><path d="M149.16,134.68s-3.06-6.36-6.27-7.72c-3.88-1.65-5.31,2.6-8.98,1.77-3.67-.83-7.37-2.41-10.93,.57-3.89,3.26-1.89,5.31-1.91,9.93-.09,18.72-3.23,24.17-4.64,15.42-.15-.96-2.87-1.59-3.46-5.64-.78-5.25-1.3-11.65-.31-15.45,.84-3.21,2.53-5.48,5.64-8.04,4.91-4.05,11.9-4.48,16.68-4.24,4.78,.24,14.21,5.26,14.18,13.41Z" style="fill:#1a2238;"/><path d="M117.08,154.32c-.15-1.6-1.59-2.79-3.18-2.56-1.93,.28-4.02,1.49-3.7,5.48,.58,7.08,7.57,5.04,7.57,4.84,0-.14-.42-4.79-.69-7.75Z" style="fill:#ffc19d;"/><path d="M116.02,159.53s-.12,.1-.32,.21c-.2,.11-.54,.2-.92,.09-.77-.21-1.5-1.35-1.64-2.62-.07-.64,.01-1.27,.2-1.79,.17-.54,.48-.93,.85-1.02,.37-.12,.65,.09,.76,.28,.11,.19,.08,.34,.12,.34,.02,.02,.14-.13,.06-.42-.04-.14-.14-.3-.32-.42-.18-.12-.44-.17-.7-.12-.54,.08-.99,.63-1.2,1.2-.24,.58-.35,1.29-.27,2.01,.16,1.42,1,2.7,2.05,2.91,.51,.09,.91-.1,1.11-.28,.2-.19,.23-.35,.2-.37Z" style="fill:#ff9c6a;"/></g><path d="M116.54,140.57c.95,.58,1.96,1.18,3.07,1.24,1.12,.05,2.35-.65,2.49-1.76,.06-.5-.09-1.06,.22-1.46,.36-.47,1.09-.37,1.68-.33,2.07,.12,4.37-2.28,4.8-4.31,.56,.76,1.73,.94,2.5,.39,.77-.55,1.05-.86,1.63-1.6,.59-.74,1.43-1.43,2.37-1.34,.53,.05,1.03,.34,1.56,.26,.93-.13,1.33-1.24,1.42-2.17,.1-.93,.15-2.02,.91-2.56,.71-.5,1.67-.28,2.53-.2,.86,.08,1.96-.17,2.14-1.02,.09-.45-.12-.9-.38-1.27-1.19-1.68-3.64-2.34-5.51-1.47-.81-2.31-3.09-4.03-5.54-4.16-2.44-.14-4.9,1.32-5.96,3.52-1.57-1.29-3.77-1.75-5.73-1.2-1.95,.55-3.59,2.09-4.26,4.01-1.75-.37-3.68,.4-4.71,1.86-1.02,1.46-1.08,3.54-.13,5.06-1.24,.79-2.27,2.11-2.22,3.58,.05,1.47,1.55,2.86,2.95,2.4-.52,1.17,.03,2.7,1.17,3.28,1.14,.58,2.7,.13,3.35-.97" style="fill:#1a2238;"/><path d="M138.61,125.02s0,.04,0,.13c0,.09,0,.21-.03,.38-.05,.33-.16,.82-.45,1.39-.29,.56-.76,1.22-1.49,1.76-.72,.54-1.71,.98-2.86,.97l.11-.16c.25,.6,.23,1.33-.05,1.97-.25,.65-.68,1.23-1.13,1.8-.23,.28-.43,.6-.75,.85-.32,.25-.7,.4-1.1,.47-.79,.14-1.71-.06-2.32-.7l.26-.09c-.11,1.42-.84,2.87-2.07,3.79-.65,.52-1.47,.86-2.29,.88-.82,.03-1.6-.17-2.32-.39l.19-.09c-.34,.9-.89,1.68-1.57,2.27-.67,.59-1.59,.96-2.44,.8-1.69-.27-2.87-1.61-3.16-2.91l.16,.07c-.81,.49-1.7,.58-2.42,.48-.73-.1-1.32-.38-1.74-.67-.42-.3-.68-.61-.84-.83-.14-.23-.21-.35-.2-.36,.03-.03,.26,.53,1.1,1.09,.42,.27,.99,.53,1.69,.6,.69,.08,1.54-.02,2.28-.49l.13-.08,.04,.15c.29,1.21,1.42,2.46,2.99,2.69,.77,.14,1.58-.19,2.21-.75,.64-.56,1.16-1.31,1.47-2.16l.05-.13,.14,.04c.71,.21,1.46,.4,2.22,.37,.76-.02,1.5-.32,2.12-.82,1.16-.87,1.85-2.23,1.96-3.58l.03-.34,.23,.25c.52,.55,1.34,.75,2.05,.62,.36-.06,.7-.2,.98-.41,.27-.21,.48-.52,.71-.8,.45-.56,.86-1.13,1.1-1.73,.26-.6,.28-1.24,.07-1.78l-.07-.17h.18c1.09,.02,2.05-.38,2.75-.89,.72-.5,1.18-1.13,1.48-1.67,.59-1.1,.53-1.86,.59-1.84Z" style="fill:#465066;"/></g></g><path d="M139.06,162.66c-.05-.26-1.78,.19-3.39-.97-1.62-1.15-1.91-3.04-2.15-2.99-.11,0-.23,.5-.04,1.28,.17,.77,.71,1.82,1.7,2.52,.99,.7,2.09,.83,2.82,.7,.74-.12,1.12-.43,1.07-.55Z" style="fill:#1a2238;"/></g><g><g><path d="M195.32,262.88h4.39c1.09-1.64,2.18-1.95,4.47-3.31,5.82-3.44,13.57-6.22,15.22-4.9,1.65,1.32-.38,2.78-1.02,3.18-.64,.4-6.23,2.57-5.97,4.4,.25,1.82,18.51,5.11,19.32,6.85,1.09,2.34-.85,3.3-8.6,1.98l-2.2-.39s1.27,1.85-.13,3.31c-1.4,1.46-2.54,.79-2.54,.79,0,0,.13,1.72-1.65,2.51-1.78,.79-2.54,0-2.54,0,0,0,.42,4.37-3.44,3.7-3.48-.6-5.85-.6-9.28-1.31-1.54-.32-2.87-1.07-2.87-1.07l-4.34-1.66c-.71-3.12,.85-13.24,1.18-14.08Z" style="fill:#ffc19d;"/><path d="M218.26,274.79c-.06,.04-.6-.86-2.05-1.67-.7-.43-1.61-.85-2.53-1.5-.45-.32-.96-.69-1.28-1.29-.16-.3-.26-.64-.24-1.01,.01-.37,.18-.74,.44-1,.51-.54,1.27-.7,1.9-.65,.64,.04,1.2,.2,1.75,.34,1.08,.3,2.01,.71,2.75,1.13,.74,.42,1.27,.86,1.61,1.19,.34,.33,.49,.54,.47,.56-.06,.07-.78-.69-2.25-1.44-.73-.37-1.64-.73-2.69-1-.53-.13-1.09-.27-1.65-.3-.56-.03-1.13,.11-1.51,.51-.39,.38-.38,.97-.13,1.44,.25,.47,.69,.82,1.12,1.15,.86,.64,1.75,1.1,2.45,1.57,.71,.46,1.22,.95,1.51,1.32,.29,.38,.38,.63,.36,.65Z" style="fill:#7c4235;"/><path d="M210.95,263.45c.06,.01-.02,.67-.38,1.66-.35,.99-1.04,2.31-2.1,3.55-1.06,1.23-2.27,2.1-3.2,2.6-.93,.5-1.57,.67-1.59,.62-.08-.14,2.37-1.14,4.4-3.55,2.08-2.37,2.7-4.94,2.85-4.88Z" style="fill:#7c4235;"/><path d="M214.07,277.3c-.03,.06-.59-.17-1.41-.69-.41-.26-.88-.59-1.37-1.02-.48-.41-1.01-1-1.24-1.76-.24-.75-.19-1.58,.19-2.19,.38-.62,1.02-.9,1.52-.96,1.07-.11,1.56,.48,1.5,.49-.03,.08-.56-.33-1.44-.14-.42,.09-.92,.35-1.18,.84-.28,.49-.31,1.16-.11,1.8,.2,.65,.62,1.15,1.07,1.57,.45,.42,.89,.77,1.26,1.07,.75,.58,1.24,.92,1.2,.98Z" style="fill:#7c4235;"/><path d="M211.44,280.41c-.04,.05-.49-.2-1.17-.67-.66-.45-1.73-1.11-2.22-2.42-.23-.65-.22-1.34,.01-1.9,.23-.57,.72-.94,1.15-1.07,.43-.14,.82-.08,1.04,.02,.23,.1,.32,.21,.3,.24-.03,.07-.51-.23-1.22,.08-.34,.15-.68,.45-.84,.91-.17,.45-.17,1.03,.03,1.56,.41,1.1,1.36,1.79,1.98,2.31,.62,.53,.99,.89,.95,.94Z" style="fill:#7c4235;"/></g><path d="M179.46,256.07l-1.9-1.28-6.73-47.21c-.59-4.13-6.86-14.96-19.2-19.12l2.49,26.72,10.29,57.13s3.56,1.83,10.14,4.15,19.73,4.82,19.73,4.82l4.24-19.59-19.05-5.62Z" style="fill:#e1e1e1;"/><g><g><path d="M97.23,191.42l18.2-7.55,2.16-8.29,22.45,10.61,3.76-6,2.91,6.66,4.92,1.61,11.5,20.22-.04,43.09,2.33,37.17-2.49,5.87-20.6,3.04c-2.25,.33-4.54,.33-6.79,0l-41.81-6.83-1.08-12.28,4.47-33.85,.12-53.46Z" style="fill:#e1e1e1;"/><path d="M138.66,231.02c-.36-9.47,1.13-33.64,1.13-33.64l3.12-.5s5.83,23.49,8.01,52.28c.88,11.65,.88,25.14,.88,25.14l-6.27,13.46-6.93-13.37s.49-31.86,.06-43.37Z" style="fill:#ff5c36;"/><polygon points="138.98 189.29 141.6 188.27 144.1 191.59 143.24 197.64 140.12 198.15 137.04 194.34 138.98 189.29" style="fill:#ff5c36;"/></g><path d="M97.72,191.42s-11.92,3.09-15.33,14.84c-.86,2.97-5.38,46.92-6.07,52.61-.69,5.7-2.76,14.11,4.19,19.92,4.3,3.6,40.29,7.34,40.29,7.34l7.3-17.36-28.45-11.08,4.36-37.92-6.29-28.36Z" style="fill:#e1e1e1;"/></g><g><path d="M153.8,286.84l-18.86-18.91c-.44-.45-.46-1.16-.03-1.63h0c.45-.49,1.22-.5,1.69-.03l18.86,18.91c.44,.45,.46,1.16,.03,1.63h0c-.45,.49-1.22,.5-1.69,.03Z" style="fill:#1a2238;"/><path d="M127.21,268.7c.12,.09,8.3,.39,10.83,.94,2.53,.54,8.52,2.06,10.44,3.42s5.78,6.29,4.81,7.01c-.97,.72-2.16,.59-2.79,0-.53-.49-5.23-4.08-5.23-4.08,0,0-2.82-.94-2.91-.22-.09,.73,7,4.57,5.87,6.29-1.13,1.72-4.18,1.27-4.18,1.27,0,0,.87,2.76-.09,4.15-.96,1.39-3.35,2.11-3.35,2.11,0,0,.78,2.35-1.55,3.29-1.69,.68-4.23-1.03-4.23-1.03l-10.9-5.53-3.14-.19,6.42-17.44Z" style="fill:#ffc19d;"/></g><path d="M85.6,280.87s.06,0,.17,.01c.13,.02,.3,.04,.5,.07,.47,.07,1.11,.18,1.92,.31,1.71,.29,4.15,.71,7.23,1.23,6.23,1.1,15.02,2.64,25.41,4.47l-.27,.16c1.96-5.67,4.13-11.92,6.4-18.49l.15,.33c-1.68-.65-3.47-1.35-5.28-2.05-8.35-3.25-16.28-6.34-23.36-9.1l-.18-.07,.03-.19c1.57-10.47,2.89-19.33,3.83-25.63,.48-3.1,.86-5.56,1.13-7.29,.14-.82,.24-1.46,.32-1.93,.04-.2,.07-.36,.09-.49,.02-.11,.04-.17,.04-.17,0,0,0,.06,0,.17-.01,.14-.03,.3-.05,.5-.06,.47-.14,1.12-.25,1.94-.24,1.73-.57,4.2-1,7.31-.9,6.3-2.16,15.18-3.65,25.65l-.15-.26c7.09,2.75,15.02,5.82,23.38,9.06,1.81,.7,3.6,1.4,5.28,2.05l.23,.09-.08,.24c-2.29,6.57-4.47,12.81-6.44,18.48l-.07,.19-.2-.04c-10.37-1.9-19.15-3.51-25.38-4.65-3.07-.58-5.5-1.04-7.21-1.36-.81-.16-1.44-.29-1.91-.38-.2-.04-.36-.08-.49-.11-.11-.03-.16-.04-.16-.05Z" style="fill:#1a2238;"/><path d="M98.44,257.63c.03,.16-2.66,.36-5.49,1.91-2.85,1.51-4.49,3.65-4.62,3.53-.12-.05,1.4-2.41,4.37-3.99,2.95-1.61,5.76-1.58,5.74-1.45Z" style="fill:#1a2238;"/><path d="M102.87,209.82c-.09,0,0-.94-.1-2.43-.09-1.49-.42-3.54-1.23-5.66-.82-2.12-1.94-3.87-2.87-5.04-.93-1.17-1.61-1.81-1.55-1.88,.03-.04,.81,.5,1.83,1.64,1.02,1.13,2.23,2.9,3.07,5.09,.83,2.19,1.12,4.31,1.11,5.84,0,1.53-.21,2.45-.27,2.45Z" style="fill:#1a2238;"/><path d="M164.03,211.33c.14,0,.26,15,.26,33.5s-.12,33.5-.26,33.5-.26-15-.26-33.5,.12-33.5,.26-33.5Z" style="fill:#1a2238;"/><path d="M146.7,186.85s-.19,.47-.61,1.3c-.47,.9-1.09,2.08-1.84,3.52l-.12,.23-.16-.21c-1.16-1.51-2.55-3.32-4.12-5.37l.4-.05c-1.03,2.65-2.2,5.67-3.44,8.87l-.11,.27-.26-.14c-.31-.16-.64-.34-.98-.52-5.57-2.94-10.59-5.63-14.22-7.6-1.75-.96-3.2-1.76-4.28-2.36-1.01-.57-1.55-.9-1.54-.93,.02-.03,.6,.24,1.63,.75,1.1,.56,2.58,1.31,4.36,2.21,3.67,1.89,8.72,4.53,14.29,7.47,.34,.18,.67,.35,.98,.52l-.36,.13c1.26-3.19,2.45-6.2,3.5-8.85l.15-.39,.25,.33c1.53,2.07,2.89,3.92,4.02,5.44l-.28,.02c.81-1.41,1.48-2.57,1.98-3.45,.47-.8,.74-1.23,.77-1.22Z" style="fill:#1a2238;"/></g></g></svg>